<svg width="154" height="128" viewBox="0 0 154 128" fill="none" xmlns="http://www.w3.org/2000/svg">
<path fill-rule="evenodd" clip-rule="evenodd" d="M76.2857 25.1429C67.4491 25.1429 60.2857 32.3063 60.2857 41.1429C60.2857 49.9794 67.4491 57.1429 76.2857 57.1429C85.1223 57.1429 92.2857 49.9794 92.2857 41.1429C92.2857 32.3063 85.1223 25.1429 76.2857 25.1429ZM55.7143 41.1429C55.7143 29.7816 64.9244 20.5714 76.2857 20.5714C87.647 20.5714 96.8571 29.7816 96.8571 41.1429C96.8571 52.5042 87.647 61.7143 76.2857 61.7143C64.9244 61.7143 55.7143 52.5042 55.7143 41.1429ZM106.071 22.8845C106.385 21.6616 107.63 20.924 108.853 21.2372C113.278 22.3701 117.2 24.9436 120.001 28.5519C122.801 32.1602 124.322 36.598 124.322 41.1657C124.322 45.7335 122.801 50.1713 120.001 53.7796C117.2 57.3878 113.278 59.9613 108.853 61.0943C107.63 61.4074 106.385 60.6699 106.071 59.447C105.758 58.224 106.496 56.9788 107.719 56.6657C111.16 55.7845 114.211 53.7829 116.389 50.9765C118.568 48.17 119.75 44.7184 119.75 41.1657C119.75 37.613 118.568 34.1614 116.389 31.355C114.211 28.5485 111.16 26.5469 107.719 25.6657C106.496 25.3526 105.758 24.1074 106.071 22.8845ZM43.4538 81.4538C47.3117 77.5959 52.5441 75.4286 58 75.4286H94.5714C100.027 75.4286 105.26 77.5959 109.118 81.4538C112.976 85.3117 115.143 90.5441 115.143 96V105.143C115.143 106.405 114.119 107.429 112.857 107.429C111.595 107.429 110.571 106.405 110.571 105.143V96C110.571 91.7565 108.886 87.6869 105.885 84.6863C102.885 81.6857 98.8149 80 94.5714 80H58C53.7565 80 49.6869 81.6857 46.6863 84.6863C43.6857 87.6869 42 91.7565 42 96V105.143C42 106.405 40.9766 107.429 39.7143 107.429C38.4519 107.429 37.4286 106.405 37.4286 105.143V96C37.4286 90.5441 39.5959 85.3117 43.4538 81.4538ZM124.358 77.7372C124.674 76.5149 125.921 75.7799 127.143 76.0955C131.556 77.2349 135.466 79.8079 138.258 83.4102C141.051 87.0126 142.568 91.4403 142.571 95.9983V105.143C142.571 106.405 141.548 107.429 140.286 107.429C139.023 107.429 138 106.405 138 105.143V96.0017C137.997 92.4566 136.817 89.0128 134.645 86.211C132.473 83.4091 129.433 81.408 126 80.5217C124.778 80.2061 124.043 78.9594 124.358 77.7372Z" fill="#9A99A2"/>
<g filter="url(#filter0_b_32_10)">
<path d="M56.4281 72.8812C56.3266 72.8812 56.2047 72.8609 56.1031 72.8609C55.575 72.8609 55.0469 72.8609 54.5188 72.9219C52.6297 64.6344 45.1953 58.3984 36.2984 58.3984C25.9797 58.3984 17.6313 66.7062 17.6313 76.9641C17.6313 77.5937 17.6719 78.2031 17.7328 78.8125C11.4359 79.3609 6.5 84.9266 6.5 91.325C6.5 98.1094 11.9438 104 18.7484 104H56.4281C64.9391 104 71.825 96.9516 71.825 88.5016C71.825 80.0516 64.9391 72.8812 56.4281 72.8812V72.8812Z" fill="#E6E4EA" fill-opacity="0.7"/>
</g>
<defs>
<filter id="filter0_b_32_10" x="-3.5" y="48.3984" width="85.325" height="65.6016" filterUnits="userSpaceOnUse" color-interpolation-filters="sRGB">
<feFlood flood-opacity="0" result="BackgroundImageFix"/>
<feGaussianBlur in="BackgroundImage" stdDeviation="5"/>
<feComposite in2="SourceAlpha" operator="in" result="effect1_backgroundBlur_32_10"/>
<feBlend mode="normal" in="SourceGraphic" in2="effect1_backgroundBlur_32_10" result="shape"/>
</filter>
</defs>
</svg>
