<?xml version="1.0" encoding="UTF-8"?>
<!--Generator: Apple Native CoreSVG 149-->
<!DOCTYPE svg
PUBLIC "-//W3C//DTD SVG 1.1//EN"
       "http://www.w3.org/Graphics/SVG/1.1/DTD/svg11.dtd">
<svg version="1.1" xmlns="http://www.w3.org/2000/svg" xmlns:xlink="http://www.w3.org/1999/xlink" width="3300" height="2200">
 <!--glyph: "uni10017C.medium", point size: 100.0, font version: "17.0d9e1", template writer version: "59"-->
 <style>.multicolor-0:systemGreenColor {fill:#28CD41;opacity:1.0}

.SFSymbolsPreview28CD41 {fill:#28CD41;opacity:1.0}
</style>
 <g id="Notes">
  <rect height="2200" id="artboard" style="fill:white;opacity:1" width="3300" x="0" y="0"/>
  <line style="fill:none;stroke:black;opacity:1;stroke-width:0.5;" x1="263" x2="3036" y1="292" y2="292"/>
  <text style="stroke:none;fill:black;font-family:sans-serif;font-size:13;font-weight:bold;" transform="matrix(1 0 0 1 263 322)">Weight/Scale Variations</text>
  <text style="stroke:none;fill:black;font-family:sans-serif;font-size:13;text-anchor:middle;" transform="matrix(1 0 0 1 559.711 322)">Ultralight</text>
  <text style="stroke:none;fill:black;font-family:sans-serif;font-size:13;text-anchor:middle;" transform="matrix(1 0 0 1 856.422 322)">Thin</text>
  <text style="stroke:none;fill:black;font-family:sans-serif;font-size:13;text-anchor:middle;" transform="matrix(1 0 0 1 1153.13 322)">Light</text>
  <text style="stroke:none;fill:black;font-family:sans-serif;font-size:13;text-anchor:middle;" transform="matrix(1 0 0 1 1449.84 322)">Regular</text>
  <text style="stroke:none;fill:black;font-family:sans-serif;font-size:13;text-anchor:middle;" transform="matrix(1 0 0 1 1746.56 322)">Medium</text>
  <text style="stroke:none;fill:black;font-family:sans-serif;font-size:13;text-anchor:middle;" transform="matrix(1 0 0 1 2043.27 322)">Semibold</text>
  <text style="stroke:none;fill:black;font-family:sans-serif;font-size:13;text-anchor:middle;" transform="matrix(1 0 0 1 2339.98 322)">Bold</text>
  <text style="stroke:none;fill:black;font-family:sans-serif;font-size:13;text-anchor:middle;" transform="matrix(1 0 0 1 2636.69 322)">Heavy</text>
  <text style="stroke:none;fill:black;font-family:sans-serif;font-size:13;text-anchor:middle;" transform="matrix(1 0 0 1 2933.4 322)">Black</text>
  <line style="fill:none;stroke:black;opacity:1;stroke-width:0.5;" x1="263" x2="3036" y1="1903" y2="1903"/>
  <g transform="matrix(1 0 0 1 263 1933)">
   <path d="M9.24805 0.830078Q10.8691 0.830078 12.2949 0.214844Q13.7207-0.400391 14.8096-1.49414Q15.8984-2.58789 16.5186-4.01367Q17.1387-5.43945 17.1387-7.05078Q17.1387-8.66211 16.5186-10.0879Q15.8984-11.5137 14.8047-12.6074Q13.7109-13.7012 12.2852-14.3164Q10.8594-14.9316 9.23828-14.9316Q7.62695-14.9316 6.20117-14.3164Q4.77539-13.7012 3.69141-12.6074Q2.60742-11.5137 1.9873-10.0879Q1.36719-8.66211 1.36719-7.05078Q1.36719-5.43945 1.9873-4.01367Q2.60742-2.58789 3.69629-1.49414Q4.78516-0.400391 6.21094 0.214844Q7.63672 0.830078 9.24805 0.830078ZM9.24805-0.654297Q7.91992-0.654297 6.7627-1.14746Q5.60547-1.64062 4.73145-2.51953Q3.85742-3.39844 3.36426-4.56055Q2.87109-5.72266 2.87109-7.05078Q2.87109-8.37891 3.35938-9.54102Q3.84766-10.7031 4.72168-11.582Q5.5957-12.4609 6.75293-12.9541Q7.91016-13.4473 9.23828-13.4473Q10.5762-13.4473 11.7334-12.9541Q12.8906-12.4609 13.7695-11.582Q14.6484-10.7031 15.1465-9.54102Q15.6445-8.37891 15.6445-7.05078Q15.6445-5.72266 15.1514-4.56055Q14.6582-3.39844 13.7842-2.51953Q12.9102-1.64062 11.748-1.14746Q10.5859-0.654297 9.24805-0.654297ZM5.83984-7.04102Q5.83984-6.71875 6.04492-6.51855Q6.25-6.31836 6.5918-6.31836L8.50586-6.31836L8.50586-4.39453Q8.50586-4.0625 8.70605-3.85742Q8.90625-3.65234 9.22852-3.65234Q9.56055-3.65234 9.76562-3.85742Q9.9707-4.0625 9.9707-4.39453L9.9707-6.31836L11.8945-6.31836Q12.2266-6.31836 12.4316-6.51855Q12.6367-6.71875 12.6367-7.04102Q12.6367-7.37305 12.4316-7.57812Q12.2266-7.7832 11.8945-7.7832L9.9707-7.7832L9.9707-9.69727Q9.9707-10.0391 9.76562-10.2441Q9.56055-10.4492 9.22852-10.4492Q8.90625-10.4492 8.70605-10.2441Q8.50586-10.0391 8.50586-9.69727L8.50586-7.7832L6.5918-7.7832Q6.25-7.7832 6.04492-7.57812Q5.83984-7.37305 5.83984-7.04102Z"/>
  </g>
  <g transform="matrix(1 0 0 1 281.867 1933)">
   <path d="M11.709 2.91016Q13.75 2.91016 15.5518 2.12891Q17.3535 1.34766 18.7305-0.0292969Q20.1074-1.40625 20.8887-3.20801Q21.6699-5.00977 21.6699-7.05078Q21.6699-9.0918 20.8887-10.8936Q20.1074-12.6953 18.7305-14.0723Q17.3535-15.4492 15.5469-16.2305Q13.7402-17.0117 11.6992-17.0117Q9.6582-17.0117 7.85645-16.2305Q6.05469-15.4492 4.68262-14.0723Q3.31055-12.6953 2.5293-10.8936Q1.74805-9.0918 1.74805-7.05078Q1.74805-5.00977 2.5293-3.20801Q3.31055-1.40625 4.6875-0.0292969Q6.06445 1.34766 7.86621 2.12891Q9.66797 2.91016 11.709 2.91016ZM11.709 1.25Q9.98047 1.25 8.47656 0.605469Q6.97266-0.0390625 5.83496-1.17676Q4.69727-2.31445 4.05762-3.81836Q3.41797-5.32227 3.41797-7.05078Q3.41797-8.7793 4.05762-10.2832Q4.69727-11.7871 5.83008-12.9297Q6.96289-14.0723 8.4668-14.7119Q9.9707-15.3516 11.6992-15.3516Q13.4277-15.3516 14.9316-14.7119Q16.4355-14.0723 17.5781-12.9297Q18.7207-11.7871 19.3652-10.2832Q20.0098-8.7793 20.0098-7.05078Q20.0098-5.32227 19.3701-3.81836Q18.7305-2.31445 17.5928-1.17676Q16.4551-0.0390625 14.9463 0.605469Q13.4375 1.25 11.709 1.25ZM7.39258-7.04102Q7.39258-6.68945 7.62695-6.46484Q7.86133-6.24023 8.23242-6.24023L10.8789-6.24023L10.8789-3.57422Q10.8789-3.21289 11.1035-2.9834Q11.3281-2.75391 11.6797-2.75391Q12.0508-2.75391 12.2852-2.9834Q12.5195-3.21289 12.5195-3.57422L12.5195-6.24023L15.1758-6.24023Q15.5371-6.24023 15.7715-6.46484Q16.0059-6.68945 16.0059-7.04102Q16.0059-7.41211 15.7715-7.6416Q15.5371-7.87109 15.1758-7.87109L12.5195-7.87109L12.5195-10.5176Q12.5195-10.8984 12.2852-11.1279Q12.0508-11.3574 11.6797-11.3574Q11.3281-11.3574 11.1035-11.1279Q10.8789-10.8984 10.8789-10.5176L10.8789-7.87109L8.23242-7.87109Q7.85156-7.87109 7.62207-7.6416Q7.39258-7.41211 7.39258-7.04102Z"/>
  </g>
  <g transform="matrix(1 0 0 1 305.646 1933)">
   <path d="M14.9707 5.66406Q17.0605 5.66406 18.96 5.01465Q20.8594 4.36523 22.4512 3.19336Q24.043 2.02148 25.2197 0.429688Q26.3965-1.16211 27.0459-3.06641Q27.6953-4.9707 27.6953-7.05078Q27.6953-9.14062 27.0459-11.04Q26.3965-12.9395 25.2197-14.5312Q24.043-16.123 22.4512-17.2998Q20.8594-18.4766 18.9551-19.126Q17.0508-19.7754 14.9609-19.7754Q12.8711-19.7754 10.9717-19.126Q9.07227-18.4766 7.48535-17.2998Q5.89844-16.123 4.72168-14.5312Q3.54492-12.9395 2.90039-11.04Q2.25586-9.14062 2.25586-7.05078Q2.25586-4.9707 2.90527-3.06641Q3.55469-1.16211 4.72656 0.429688Q5.89844 2.02148 7.49023 3.19336Q9.08203 4.36523 10.9814 5.01465Q12.8809 5.66406 14.9707 5.66406ZM14.9707 3.84766Q13.1641 3.84766 11.5283 3.2959Q9.89258 2.74414 8.53516 1.74805Q7.17773 0.751953 6.17676-0.610352Q5.17578-1.97266 4.62891-3.6084Q4.08203-5.24414 4.08203-7.05078Q4.08203-8.86719 4.62891-10.5029Q5.17578-12.1387 6.17188-13.501Q7.16797-14.8633 8.52539-15.8594Q9.88281-16.8555 11.5186-17.4023Q13.1543-17.9492 14.9609-17.9492Q16.7773-17.9492 18.4131-17.4023Q20.0488-16.8555 21.4111-15.8594Q22.7734-14.8633 23.7695-13.501Q24.7656-12.1387 25.3174-10.5029Q25.8691-8.86719 25.8691-7.05078Q25.8789-5.24414 25.332-3.6084Q24.7852-1.97266 23.7842-0.610352Q22.7832 0.751953 21.4209 1.74805Q20.0586 2.74414 18.4229 3.2959Q16.7871 3.84766 14.9707 3.84766ZM9.45312-7.04102Q9.45312-6.66016 9.71191-6.41113Q9.9707-6.16211 10.3711-6.16211L14.0625-6.16211L14.0625-2.46094Q14.0625-2.06055 14.3115-1.80664Q14.5605-1.55273 14.9414-1.55273Q15.3516-1.55273 15.6055-1.80664Q15.8594-2.06055 15.8594-2.46094L15.8594-6.16211L19.5605-6.16211Q19.9609-6.16211 20.2148-6.41113Q20.4688-6.66016 20.4688-7.04102Q20.4688-7.45117 20.2148-7.70508Q19.9609-7.95898 19.5605-7.95898L15.8594-7.95898L15.8594-11.6504Q15.8594-12.0605 15.6055-12.3145Q15.3516-12.5684 14.9414-12.5684Q14.5605-12.5684 14.3115-12.3096Q14.0625-12.0508 14.0625-11.6504L14.0625-7.95898L10.3711-7.95898Q9.96094-7.95898 9.70703-7.70508Q9.45312-7.45117 9.45312-7.04102Z"/>
  </g>
  <text style="stroke:none;fill:black;font-family:sans-serif;font-size:13;font-weight:bold;" transform="matrix(1 0 0 1 263 1953)">Design Variations</text>
  <text style="stroke:none;fill:black;font-family:sans-serif;font-size:13;" transform="matrix(1 0 0 1 263 1971)">Symbols are supported in up to nine weights and three scales.</text>
  <text style="stroke:none;fill:black;font-family:sans-serif;font-size:13;" transform="matrix(1 0 0 1 263 1989)">For optimal layout with text and other symbols, vertically align</text>
  <text style="stroke:none;fill:black;font-family:sans-serif;font-size:13;" transform="matrix(1 0 0 1 263 2007)">symbols with the adjacent text.</text>
  <line style="fill:none;stroke:#00AEEF;stroke-width:0.5;opacity:1.0;" x1="776" x2="776" y1="1919" y2="1933"/>
  <g transform="matrix(1 0 0 1 776 1933)">
   <path d="M3.31055 0.15625Q3.70117 0.15625 3.91602-0.00976562Q4.13086-0.175781 4.26758-0.585938L5.52734-4.0332L11.2891-4.0332L12.5488-0.585938Q12.6855-0.175781 12.9004-0.00976562Q13.1152 0.15625 13.4961 0.15625Q13.8867 0.15625 14.1162-0.0585938Q14.3457-0.273438 14.3457-0.644531Q14.3457-0.869141 14.2383-1.17188L9.6582-13.3691Q9.48242-13.8184 9.17969-14.043Q8.87695-14.2676 8.4082-14.2676Q7.5-14.2676 7.17773-13.3789L2.59766-1.16211Q2.49023-0.859375 2.49023-0.634766Q2.49023-0.263672 2.70996-0.0537109Q2.92969 0.15625 3.31055 0.15625ZM6.00586-5.51758L8.37891-12.0898L8.42773-12.0898L10.8008-5.51758Z"/>
  </g>
  <line style="fill:none;stroke:#00AEEF;stroke-width:0.5;opacity:1.0;" x1="793.197" x2="793.197" y1="1919" y2="1933"/>
  <text style="stroke:none;fill:black;font-family:sans-serif;font-size:13;font-weight:bold;" transform="matrix(1 0 0 1 776 1953)">Margins</text>
  <text style="stroke:none;fill:black;font-family:sans-serif;font-size:13;" transform="matrix(1 0 0 1 776 1971)">Leading and trailing margins on the left and right side of each symbol</text>
  <text style="stroke:none;fill:black;font-family:sans-serif;font-size:13;" transform="matrix(1 0 0 1 776 1989)">can be adjusted by modifying the x-location of the margin guidelines.</text>
  <text style="stroke:none;fill:black;font-family:sans-serif;font-size:13;" transform="matrix(1 0 0 1 776 2007)">Modifications are automatically applied proportionally to all</text>
  <text style="stroke:none;fill:black;font-family:sans-serif;font-size:13;" transform="matrix(1 0 0 1 776 2025)">scales and weights.</text>
  <g transform="matrix(1 0 0 1 1289 1933)">
   <path d="M2.8418 1.86523L4.54102 3.57422Q5.18555 4.22852 5.90332 4.17969Q6.62109 4.13086 7.31445 3.35938L18.0078-8.42773L17.041-9.4043L6.42578 2.27539Q6.16211 2.57812 5.89355 2.61719Q5.625 2.65625 5.27344 2.30469L4.10156 1.14258Q3.75 0.791016 3.79395 0.522461Q3.83789 0.253906 4.14062-0.0195312L15.6152-10.8203L14.6387-11.7871L3.04688-0.898438Q2.30469-0.214844 2.25098 0.498047Q2.19727 1.21094 2.8418 1.86523ZM9.25781-16.3281Q8.94531-16.0254 8.90625-15.6348Q8.86719-15.2441 9.04297-14.9512Q9.21875-14.6777 9.55566-14.541Q9.89258-14.4043 10.3809-14.5215Q11.4746-14.7754 12.5977-14.7314Q13.7207-14.6875 14.7949-13.9844L14.209-12.5293Q13.9551-11.9043 14.0674-11.4404Q14.1797-10.9766 14.5801-10.5664L16.875-8.25195Q17.2363-7.88086 17.5781-7.82227Q17.9199-7.76367 18.3398-7.8418L19.4043-8.03711L20.0684-7.36328L20.0293-6.80664Q20-6.43555 20.1221-6.12305Q20.2441-5.81055 20.6055-5.44922L21.3672-4.70703Q21.7285-4.3457 22.1533-4.33105Q22.5781-4.31641 22.9297-4.66797L25.8398-7.58789Q26.1914-7.93945 26.1816-8.35449Q26.1719-8.76953 25.8105-9.13086L25.0391-9.89258Q24.6875-10.2539 24.3799-10.3857Q24.0723-10.5176 23.7109-10.4883L23.1348-10.4395L22.4902-11.0742L22.7344-12.1973Q22.832-12.6172 22.6953-12.9834Q22.5586-13.3496 22.1191-13.7891L19.9219-15.9766Q18.6719-17.2168 17.2607-17.8369Q15.8496-18.457 14.4189-18.4814Q12.9883-18.5059 11.665-17.959Q10.3418-17.4121 9.25781-16.3281ZM10.752-15.957Q11.6602-16.6211 12.7002-16.9043Q13.7402-17.1875 14.8047-17.085Q15.8691-16.9824 16.8701-16.5137Q17.8711-16.0449 18.7012-15.2051L21.1328-12.793Q21.3086-12.6172 21.3525-12.4512Q21.3965-12.2852 21.3379-12.0312L21.0156-10.5469L22.5195-9.0625L23.5059-9.12109Q23.6914-9.13086 23.7891-9.09668Q23.8867-9.0625 24.0332-8.91602L24.6094-8.33984L22.168-5.89844L21.5918-6.47461Q21.4453-6.62109 21.4062-6.71875Q21.3672-6.81641 21.377-7.01172L21.4453-7.98828L19.9512-9.47266L18.4277-9.21875Q18.1836-9.16992 18.042-9.2041Q17.9004-9.23828 17.7148-9.41406L15.7129-11.416Q15.5176-11.5918 15.4932-11.7529Q15.4688-11.9141 15.5859-12.1875L16.4648-14.2773Q15.293-15.3711 13.8281-15.791Q12.3633-16.2109 10.8398-15.7617Q10.7227-15.7324 10.6885-15.8057Q10.6543-15.8789 10.752-15.957Z"/>
  </g>
  <text style="stroke:none;fill:black;font-family:sans-serif;font-size:13;font-weight:bold;" transform="matrix(1 0 0 1 1289 1953)">Exporting</text>
  <text style="stroke:none;fill:black;font-family:sans-serif;font-size:13;" transform="matrix(1 0 0 1 1289 1971)">Symbols should be outlined when exporting to ensure the</text>
  <text style="stroke:none;fill:black;font-family:sans-serif;font-size:13;" transform="matrix(1 0 0 1 1289 1989)">design is preserved when submitting to Xcode.</text>
  <text id="template-version" style="stroke:none;fill:black;font-family:sans-serif;font-size:13;text-anchor:end;" transform="matrix(1 0 0 1 3036 1933)">Template v.3.0</text>
  <text style="stroke:none;fill:black;font-family:sans-serif;font-size:13;text-anchor:end;" transform="matrix(1 0 0 1 3036 1951)">Requires Xcode 13 or greater</text>
  <text id="descriptive-name" style="stroke:none;fill:black;font-family:sans-serif;font-size:13;text-anchor:end;" transform="matrix(1 0 0 1 3036 1969)">Generated from plus</text>
  <text style="stroke:none;fill:black;font-family:sans-serif;font-size:13;text-anchor:end;" transform="matrix(1 0 0 1 3036 1987)">Typeset at 100 points</text>
  <text style="stroke:none;fill:black;font-family:sans-serif;font-size:13;" transform="matrix(1 0 0 1 263 726)">Small</text>
  <text style="stroke:none;fill:black;font-family:sans-serif;font-size:13;" transform="matrix(1 0 0 1 263 1156)">Medium</text>
  <text style="stroke:none;fill:black;font-family:sans-serif;font-size:13;" transform="matrix(1 0 0 1 263 1586)">Large</text>
 </g>
 <g id="Guides">
  <g id="H-reference" style="fill:#27AAE1;stroke:none;" transform="matrix(1 0 0 1 339 696)">
   <path d="M0.993347 0L3.6377 0L29.3282-67.1326L30.0301-67.1326L30.0301-70.459L28.1227-70.459ZM11.6882-24.4797L46.9818-24.4797L46.2311-26.7288L12.4382-26.7288ZM55.1193 0L57.7637 0L30.6381-70.459L29.4327-70.459L29.4327-67.1326Z"/>
  </g>
  <line id="Baseline-S" style="fill:none;stroke:#27AAE1;opacity:1;stroke-width:0.5;" x1="263" x2="3036" y1="696" y2="696"/>
  <line id="Capline-S" style="fill:none;stroke:#27AAE1;opacity:1;stroke-width:0.5;" x1="263" x2="3036" y1="625.541" y2="625.541"/>
  <g id="H-reference" style="fill:#27AAE1;stroke:none;" transform="matrix(1 0 0 1 339 1126)">
   <path d="M0.993347 0L3.6377 0L29.3282-67.1326L30.0301-67.1326L30.0301-70.459L28.1227-70.459ZM11.6882-24.4797L46.9818-24.4797L46.2311-26.7288L12.4382-26.7288ZM55.1193 0L57.7637 0L30.6381-70.459L29.4327-70.459L29.4327-67.1326Z"/>
  </g>
  <line id="Baseline-M" style="fill:none;stroke:#27AAE1;opacity:1;stroke-width:0.5;" x1="263" x2="3036" y1="1126" y2="1126"/>
  <line id="Capline-M" style="fill:none;stroke:#27AAE1;opacity:1;stroke-width:0.5;" x1="263" x2="3036" y1="1055.54" y2="1055.54"/>
  <g id="H-reference" style="fill:#27AAE1;stroke:none;" transform="matrix(1 0 0 1 339 1556)">
   <path d="M0.993347 0L3.6377 0L29.3282-67.1326L30.0301-67.1326L30.0301-70.459L28.1227-70.459ZM11.6882-24.4797L46.9818-24.4797L46.2311-26.7288L12.4382-26.7288ZM55.1193 0L57.7637 0L30.6381-70.459L29.4327-70.459L29.4327-67.1326Z"/>
  </g>
  <line id="Baseline-L" style="fill:none;stroke:#27AAE1;opacity:1;stroke-width:0.5;" x1="263" x2="3036" y1="1556" y2="1556"/>
  <line id="Capline-L" style="fill:none;stroke:#27AAE1;opacity:1;stroke-width:0.5;" x1="263" x2="3036" y1="1485.54" y2="1485.54"/>
  <line id="left-margin-Regular-M" style="fill:none;stroke:#00AEEF;stroke-width:0.5;opacity:1.0;" x1="1397.11" x2="1397.11" y1="1030.79" y2="1150.12"/>
  <line id="right-margin-Regular-M" style="fill:none;stroke:#00AEEF;stroke-width:0.5;opacity:1.0;" x1="1502.58" x2="1502.58" y1="1030.79" y2="1150.12"/>
 </g>
 <g id="Symbols">
  <g id="Black-L" transform="matrix(1 0 0 1 2861.89 1556)">
   <path class="multicolor-0:systemGreenColor SFSymbolsPreview28CD41" d="M16.0645-35.2051Q16.0645-31.8848 17.7002-29.1504Q19.3359-26.416 22.0703-24.7803Q24.8047-23.1445 28.125-23.1445L59.4238-23.1445L59.4238 8.1543Q59.4238 11.4746 61.0596 14.2334Q62.6953 16.9922 65.4297 18.6035Q68.1641 20.2148 71.4844 20.2148Q74.8535 20.2148 77.5879 18.6035Q80.3223 16.9922 81.958 14.2334Q83.5938 11.4746 83.5938 8.1543L83.5938-23.1445L114.893-23.1445Q118.213-23.1445 120.947-24.7803Q123.682-26.416 125.317-29.1504Q126.953-31.8848 126.953-35.2051Q126.953-38.5742 125.317-41.3086Q123.682-44.043 120.947-45.6543Q118.213-47.2656 114.893-47.2656L83.5938-47.2656L83.5938-78.5645Q83.5938-81.9336 81.958-84.668Q80.3223-87.4023 77.5879-89.0381Q74.8535-90.6738 71.4844-90.6738Q68.1641-90.6738 65.4297-89.0381Q62.6953-87.4023 61.0596-84.668Q59.4238-81.9336 59.4238-78.5645L59.4238-47.2656L28.125-47.2656Q24.8047-47.2656 22.0703-45.6543Q19.3359-44.043 17.7002-41.3086Q16.0645-38.5742 16.0645-35.2051Z"/>
  </g>
  <g id="Heavy-L" transform="matrix(1 0 0 1 2566.14 1556)">
   <path class="multicolor-0:systemGreenColor SFSymbolsPreview28CD41" d="M16.0645-35.2165Q16.0645-32.3807 17.4698-30.0323Q18.8751-27.684 21.2177-26.2844Q23.5603-24.8848 26.4076-24.8848L60.1959-24.8848L60.1959 8.9035Q60.1959 11.7516 61.5955 14.1125Q62.9951 16.4734 65.3435 17.86Q67.6918 19.2467 70.5276 19.2467Q73.4131 19.2467 75.7614 17.86Q78.1097 16.4734 79.509 14.1125Q80.9082 11.7516 80.9082 8.9035L80.9082-24.8848L114.697-24.8848Q117.545-24.8848 119.887-26.2844Q122.23-27.684 123.635-30.0323Q125.04-32.3807 125.04-35.2165Q125.04-38.102 123.635-40.4446Q122.23-42.7872 119.887-44.1734Q117.545-45.5597 114.697-45.5597L80.9082-45.5597L80.9082-79.348Q80.9082-82.222 79.509-84.5703Q78.1097-86.9186 75.7614-88.3236Q73.4131-89.7285 70.5276-89.7285Q67.6918-89.7285 65.3435-88.3236Q62.9951-86.9186 61.5955-84.5703Q60.1959-82.222 60.1959-79.348L60.1959-45.5597L26.4076-45.5597Q23.5603-45.5597 21.2177-44.1734Q18.8751-42.7872 17.4698-40.4446Q16.0645-38.102 16.0645-35.2165Z"/>
  </g>
  <g id="Bold-L" transform="matrix(1 0 0 1 2270.5 1556)">
   <path class="multicolor-0:systemGreenColor SFSymbolsPreview28CD41" d="M16.0645-35.2295Q16.0645-32.9346 17.2119-31.0181Q18.3594-29.1016 20.2637-27.9663Q22.168-26.8311 24.4873-26.8311L61.0596-26.8311L61.0596 9.74121Q61.0596 12.0605 62.1948 13.9771Q63.3301 15.8936 65.2466 17.0288Q67.1631 18.1641 69.458 18.1641Q71.8018 18.1641 73.7183 17.0288Q75.6348 15.8936 76.77 13.9771Q77.9053 12.0605 77.9053 9.74121L77.9053-26.8311L114.478-26.8311Q116.797-26.8311 118.701-27.9663Q120.605-29.1016 121.753-31.0181Q122.9-32.9346 122.9-35.2295Q122.9-37.5732 121.753-39.4775Q120.605-41.3818 118.701-42.5171Q116.797-43.6523 114.478-43.6523L77.9053-43.6523L77.9053-80.2246Q77.9053-82.5439 76.77-84.4604Q75.6348-86.377 73.7183-87.5244Q71.8018-88.6719 69.458-88.6719Q67.1631-88.6719 65.2466-87.5244Q63.3301-86.377 62.1948-84.4604Q61.0596-82.5439 61.0596-80.2246L61.0596-43.6523L24.4873-43.6523Q22.168-43.6523 20.2637-42.5171Q18.3594-41.3818 17.2119-39.4775Q16.0645-37.5732 16.0645-35.2295Z"/>
  </g>
  <g id="Semibold-L" transform="matrix(1 0 0 1 1974.52 1556)">
   <path class="multicolor-0:systemGreenColor SFSymbolsPreview28CD41" d="M16.0645-35.2386Q16.0645-33.3168 17.0341-31.6978Q18.0038-30.0789 19.606-29.126Q21.2082-28.1731 23.1628-28.1731L61.6547-28.1731L61.6547 10.3188Q61.6547 12.2742 62.608 13.884Q63.5612 15.4938 65.1798 16.4558Q66.7984 17.4179 68.7202 17.4179Q70.6909 17.4179 72.3099 16.4558Q73.9288 15.4938 74.8817 13.884Q75.8347 12.2742 75.8347 10.3188L75.8347-28.1731L114.326-28.1731Q116.281-28.1731 117.883-29.126Q119.485-30.0789 120.455-31.6978Q121.425-33.3168 121.425-35.2386Q121.425-37.2086 120.455-38.8107Q119.485-40.4129 117.883-41.375Q116.281-42.337 114.326-42.337L75.8347-42.337L75.8347-80.8289Q75.8347-82.766 74.8817-84.3849Q73.9288-86.0039 72.3099-86.9736Q70.6909-87.9433 68.7202-87.9433Q66.7984-87.9433 65.1798-86.9736Q63.5612-86.0039 62.608-84.3849Q61.6547-82.766 61.6547-80.8289L61.6547-42.337L23.1628-42.337Q21.2082-42.337 19.606-41.375Q18.0038-40.4129 17.0341-38.8107Q16.0645-37.2086 16.0645-35.2386Z"/>
  </g>
  <g id="Medium-L" transform="matrix(1 0 0 1 1678.37 1556)">
   <path class="multicolor-0:systemGreenColor SFSymbolsPreview28CD41" d="M16.0645-35.2448Q16.0645-33.6067 16.8995-32.2136Q17.7345-30.8205 19.1074-30.0056Q20.4803-29.1908 22.1588-29.1908L62.1063-29.1908L62.1063 10.7567Q62.1063 12.4359 62.9211 13.813Q63.736 15.1901 65.1291 16.021Q66.5222 16.8518 68.161 16.8518Q69.8486 16.8518 71.2418 16.021Q72.6349 15.1901 73.4497 13.813Q74.2645 12.4359 74.2645 10.7567L74.2645-29.1908L114.212-29.1908Q115.891-29.1908 117.263-30.0056Q118.636-30.8205 119.471-32.2136Q120.306-33.6067 120.306-35.2448Q120.306-36.9324 119.471-38.3057Q118.636-39.679 117.263-40.5094Q115.891-41.3399 114.212-41.3399L74.2645-41.3399L74.2645-81.2874Q74.2645-82.9346 73.4497-84.3277Q72.6349-85.7208 71.2418-86.5559Q69.8486-87.3909 68.161-87.3909Q66.5222-87.3909 65.1291-86.5559Q63.736-85.7208 62.9211-84.3277Q62.1063-82.9346 62.1063-81.2874L62.1063-41.3399L22.1588-41.3399Q20.4803-41.3399 19.1074-40.5094Q17.7345-39.679 16.8995-38.3057Q16.0645-36.9324 16.0645-35.2448Z"/>
  </g>
  <g id="Regular-L" transform="matrix(1 0 0 1 1382.39 1556)">
   <path class="multicolor-0:systemGreenColor SFSymbolsPreview28CD41" d="M16.0645-35.2539Q16.0645-33.9844 16.7236-32.8857Q17.3828-31.7871 18.457-31.1523Q19.5312-30.5176 20.8496-30.5176L62.6953-30.5176L62.6953 11.3281Q62.6953 12.6465 63.3301 13.7207Q63.9648 14.7949 65.0635 15.4541Q66.1621 16.1133 67.4316 16.1133Q68.75 16.1133 69.8486 15.4541Q70.9473 14.7949 71.582 13.7207Q72.2168 12.6465 72.2168 11.3281L72.2168-30.5176L114.062-30.5176Q115.381-30.5176 116.455-31.1523Q117.529-31.7871 118.188-32.8857Q118.848-33.9844 118.848-35.2539Q118.848-36.5723 118.188-37.6465Q117.529-38.7207 116.455-39.3799Q115.381-40.0391 114.062-40.0391L72.2168-40.0391L72.2168-81.8848Q72.2168-83.1543 71.582-84.2529Q70.9473-85.3516 69.8486-86.0107Q68.75-86.6699 67.4316-86.6699Q66.1621-86.6699 65.0635-86.0107Q63.9648-85.3516 63.3301-84.2529Q62.6953-83.1543 62.6953-81.8848L62.6953-40.0391L20.8496-40.0391Q19.5312-40.0391 18.457-39.3799Q17.3828-38.7207 16.7236-37.6465Q16.0645-36.5723 16.0645-35.2539Z"/>
  </g>
  <g id="Light-L" transform="matrix(1 0 0 1 1086.49 1556)">
   <path class="multicolor-0:systemGreenColor SFSymbolsPreview28CD41" d="M16.0645-35.2539Q16.0645-34.3025 16.5573-33.4763Q17.0502-32.65 17.8593-32.1743Q18.6684-31.6986 19.6686-31.6986L63.0585-31.6986L63.0585 11.7065Q63.0585 12.6923 63.5345 13.5014Q64.0106 14.3105 64.8365 14.8033Q65.6624 15.2962 66.629 15.2962Q67.6147 15.2962 68.441 14.8033Q69.2673 14.3105 69.743 13.5014Q70.2187 12.6923 70.2187 11.7065L70.2187-31.6986L113.624-31.6986Q114.609-31.6986 115.418-32.1743Q116.228-32.65 116.728-33.4763Q117.228-34.3025 117.228-35.2539Q117.228-36.2541 116.728-37.0636Q116.228-37.8731 115.418-38.3656Q114.609-38.858 113.624-38.858L70.2187-38.858L70.2187-82.2632Q70.2187-83.2146 69.743-84.0408Q69.2673-84.8671 68.441-85.36Q67.6147-85.8528 66.629-85.8528Q65.6624-85.8528 64.8365-85.36Q64.0106-84.8671 63.5345-84.0408Q63.0585-83.2146 63.0585-82.2632L63.0585-38.858L19.6686-38.858Q18.6684-38.858 17.8593-38.3656Q17.0502-37.8731 16.5573-37.0636Q16.0645-36.2541 16.0645-35.2539Z"/>
  </g>
  <g id="Thin-L" transform="matrix(1 0 0 1 790.847 1556)">
   <path class="multicolor-0:systemGreenColor SFSymbolsPreview28CD41" d="M16.0645-35.2539Q16.0645-34.7229 16.3368-34.2567Q16.6092-33.7906 17.0685-33.5251Q17.5278-33.2596 18.1076-33.2596L63.5391-33.2596L63.5391 12.207Q63.5391 12.7518 63.8046 13.2111Q64.0701 13.6703 64.5359 13.9427Q65.0017 14.2151 65.5685 14.2151Q66.1133 14.2151 66.5791 13.9427Q67.0448 13.6703 67.3107 13.2111Q67.5766 12.7518 67.5766 12.207L67.5766-33.2596L113.043-33.2596Q113.588-33.2596 114.047-33.5251Q114.506-33.7906 114.796-34.2567Q115.086-34.7229 115.086-35.2539Q115.086-35.8337 114.796-36.293Q114.506-36.7523 114.047-37.0247Q113.588-37.2971 113.043-37.2971L67.5766-37.2971L67.5766-82.7637Q67.5766-83.2947 67.3107-83.7608Q67.0448-84.227 66.5791-84.4994Q66.1133-84.7717 65.5685-84.7717Q65.0017-84.7717 64.5359-84.4994Q64.0701-84.227 63.8046-83.7608Q63.5391-83.2947 63.5391-82.7637L63.5391-37.2971L18.1076-37.2971Q17.5278-37.2971 17.0685-37.0247Q16.6092-36.7523 16.3368-36.293Q16.0645-35.8337 16.0645-35.2539Z"/>
  </g>
  <g id="Ultralight-L" transform="matrix(1 0 0 1 494.684 1556)">
   <path class="multicolor-0:systemGreenColor SFSymbolsPreview28CD41" d="M16.0645-35.2539Q16.0645-34.938 16.2243-34.6569Q16.3841-34.3758 16.6634-34.2178Q16.9426-34.0599 17.3073-34.0599L63.7848-34.0599L63.7848 12.4634Q63.7848 12.7831 63.9431 13.0623Q64.1014 13.3415 64.3826 13.5014Q64.6637 13.6612 65.0246 13.6612Q65.3442 13.6612 65.6254 13.5014Q65.9065 13.3415 66.0645 13.0623Q66.2224 12.7831 66.2224 12.4634L66.2224-34.0599L112.746-34.0599Q113.065-34.0599 113.345-34.2178Q113.624-34.3758 113.806-34.6569Q113.988-34.938 113.988-35.2539Q113.988-35.6186 113.806-35.8982Q113.624-36.1778 113.345-36.3373Q113.065-36.4967 112.746-36.4967L66.2224-36.4967L66.2224-83.02Q66.2224-83.3359 66.0645-83.617Q65.9065-83.8982 65.6254-84.058Q65.3442-84.2178 65.0246-84.2178Q64.6637-84.2178 64.3826-84.058Q64.1014-83.8982 63.9431-83.617Q63.7848-83.3359 63.7848-83.02L63.7848-36.4967L17.3073-36.4967Q16.9426-36.4967 16.6634-36.3373Q16.3841-36.1778 16.2243-35.8982Q16.0645-35.6186 16.0645-35.2539Z"/>
  </g>
  <g id="Black-M" transform="matrix(1 0 0 1 2877.44 1126)">
   <path class="multicolor-0:systemGreenColor SFSymbolsPreview28CD41" d="M12.4512-35.2051Q12.4512-30.8594 15.5029-27.8076Q18.5547-24.7559 22.9004-24.7559L45.5566-24.7559L45.5566-2.09961Q45.5566 2.19727 48.584 5.24902Q51.6113 8.30078 55.957 8.30078Q60.3027 8.30078 63.3545 5.24902Q66.4062 2.19727 66.4062-2.09961L66.4062-24.7559L89.0625-24.7559Q93.3594-24.7559 96.4111-27.8076Q99.4629-30.8594 99.4629-35.2051Q99.4629-39.5508 96.4111-42.6025Q93.3594-45.6543 89.0625-45.6543L66.4062-45.6543L66.4062-68.2617Q66.4062-72.6074 63.3545-75.6592Q60.3027-78.7109 55.957-78.7109Q51.6113-78.7109 48.584-75.6592Q45.5566-72.6074 45.5566-68.2617L45.5566-45.6543L22.9004-45.6543Q18.5547-45.6543 15.5029-42.6025Q12.4512-39.5508 12.4512-35.2051Z"/>
  </g>
  <g id="Heavy-M" transform="matrix(1 0 0 1 2581.49 1126)">
   <path class="multicolor-0:systemGreenColor SFSymbolsPreview28CD41" d="M12.4512-35.2165Q12.4512-31.4705 15.0879-28.8391Q17.7246-26.2077 21.46-26.2077L46.225-26.2077L46.225-1.44272Q46.225 2.25525 48.8377 4.89197Q51.4503 7.52869 55.1964 7.52869Q58.9432 7.52869 61.5799 4.89197Q64.2166 2.25525 64.2166-1.44272L64.2166-26.2077L88.9702-26.2077Q92.6682-26.2077 95.3049-28.8391Q97.9416-31.4705 97.9416-35.2165Q97.9416-38.9633 95.3049-41.6Q92.6682-44.2368 88.9702-44.2368L64.2166-44.2368L64.2166-68.9529Q64.2166-72.6883 61.5799-75.325Q58.9432-77.9617 55.1964-77.9617Q51.4503-77.9617 48.8377-75.325Q46.225-72.6883 46.225-68.9529L46.225-44.2368L21.46-44.2368Q17.7246-44.2368 15.0879-41.6Q12.4512-38.9633 12.4512-35.2165Z"/>
  </g>
  <g id="Bold-M" transform="matrix(1 0 0 1 2285.63 1126)">
   <path class="multicolor-0:systemGreenColor SFSymbolsPreview28CD41" d="M12.4512-35.2295Q12.4512-32.1533 14.624-29.9927Q16.7969-27.832 19.8486-27.832L46.9727-27.832L46.9727-0.708008Q46.9727 2.31934 49.1211 4.49219Q51.2695 6.66504 54.3457 6.66504Q57.4219 6.66504 59.5947 4.49219Q61.7676 2.31934 61.7676-0.708008L61.7676-27.832L88.8672-27.832Q91.8945-27.832 94.0674-29.9927Q96.2402-32.1533 96.2402-35.2295Q96.2402-38.3057 94.0674-40.4785Q91.8945-42.6514 88.8672-42.6514L61.7676-42.6514L61.7676-69.7266Q61.7676-72.7783 59.5947-74.9512Q57.4219-77.124 54.3457-77.124Q51.2695-77.124 49.1211-74.9512Q46.9727-72.7783 46.9727-69.7266L46.9727-42.6514L19.8486-42.6514Q16.7969-42.6514 14.624-40.4785Q12.4512-38.3057 12.4512-35.2295Z"/>
  </g>
  <g id="Semibold-M" transform="matrix(1 0 0 1 1989.51 1126)">
   <path class="multicolor-0:systemGreenColor SFSymbolsPreview28CD41" d="M12.4512-35.2386Q12.4512-32.6241 14.304-30.788Q16.1568-28.952 18.7378-28.952L47.4884-28.952L47.4884-0.201416Q47.4884 2.36359 49.3168 4.21677Q51.1452 6.06995 53.759 6.06995Q56.3728 6.06995 58.226 4.21677Q60.0792 2.36359 60.0792-0.201416L60.0792-28.952L88.7962-28.952Q91.3612-28.952 93.214-30.788Q95.0668-32.6241 95.0668-35.2386Q95.0668-37.8525 93.214-39.7053Q91.3612-41.5581 88.7962-41.5581L60.0792-41.5581L60.0792-70.2599Q60.0792-72.8409 58.226-74.6937Q56.3728-76.5465 53.759-76.5465Q51.1452-76.5465 49.3168-74.6937Q47.4884-72.8409 47.4884-70.2599L47.4884-41.5581L18.7378-41.5581Q16.1568-41.5581 14.304-39.7053Q12.4512-37.8525 12.4512-35.2386Z"/>
  </g>
  <g id="Medium-M" transform="matrix(1 0 0 1 1693.24 1126)">
   <path class="multicolor-0:systemGreenColor SFSymbolsPreview28CD41" d="M12.4512-35.2448Q12.4512-32.9811 14.0614-31.3911Q15.6715-29.8012 17.8955-29.8012L47.879-29.8012L47.879 0.182343Q47.879 2.39716 49.4648 4.00772Q51.0506 5.61829 53.3142 5.61829Q55.5779 5.61829 57.1884 4.00772Q58.799 2.39716 58.799 0.182343L58.799-29.8012L88.7421-29.8012Q90.9569-29.8012 92.5674-31.3911Q94.178-32.9811 94.178-35.2448Q94.178-37.5084 92.5674-39.119Q90.9569-40.7295 88.7421-40.7295L58.799-40.7295L58.799-70.6642Q58.799-72.8874 57.1884-74.498Q55.5779-76.1086 53.3142-76.1086Q51.0506-76.1086 49.4648-74.498Q47.879-72.8874 47.879-70.6642L47.879-40.7295L17.8955-40.7295Q15.6715-40.7295 14.0614-39.119Q12.4512-37.5084 12.4512-35.2448Z"/>
  </g>
  <g id="Regular-M" transform="matrix(1 0 0 1 1397.11 1126)">
   <path class="multicolor-0:systemGreenColor SFSymbolsPreview28CD41" d="M12.4512-35.2539Q12.4512-33.4473 13.7451-32.1777Q15.0391-30.9082 16.7969-30.9082L48.3887-30.9082L48.3887 0.683594Q48.3887 2.44141 49.6582 3.73535Q50.9277 5.0293 52.7344 5.0293Q54.541 5.0293 55.835 3.73535Q57.1289 2.44141 57.1289 0.683594L57.1289-30.9082L88.6719-30.9082Q90.4297-30.9082 91.7236-32.1777Q93.0176-33.4473 93.0176-35.2539Q93.0176-37.0605 91.7236-38.3545Q90.4297-39.6484 88.6719-39.6484L57.1289-39.6484L57.1289-71.1914Q57.1289-72.9492 55.835-74.2432Q54.541-75.5371 52.7344-75.5371Q50.9277-75.5371 49.6582-74.2432Q48.3887-72.9492 48.3887-71.1914L48.3887-39.6484L16.7969-39.6484Q15.0391-39.6484 13.7451-38.3545Q12.4512-37.0605 12.4512-35.2539Z"/>
  </g>
  <g id="Light-M" transform="matrix(1 0 0 1 1101.13 1126)">
   <path class="multicolor-0:systemGreenColor SFSymbolsPreview28CD41" d="M12.4512-35.2539Q12.4512-33.886 13.4274-32.9269Q14.4035-31.9679 15.7372-31.9679L48.7213-31.9679L48.7213 1.00174Q48.7213 2.33536 49.6807 3.31917Q50.6401 4.30298 52.0081 4.30298Q53.3752 4.30298 54.3514 3.31917Q55.3276 2.33536 55.3276 1.00174L55.3276-31.9679L88.2629-31.9679Q89.6126-31.9679 90.5884-32.9269Q91.5642-33.886 91.5642-35.2539Q91.5642-36.6219 90.5884-37.6053Q89.6126-38.5887 88.2629-38.5887L55.3276-38.5887L55.3276-71.524Q55.3276-72.8584 54.3514-73.8346Q53.3752-74.8108 52.0081-74.8108Q50.6401-74.8108 49.6807-73.8346Q48.7213-72.8584 48.7213-71.524L48.7213-38.5887L15.7372-38.5887Q14.4035-38.5887 13.4274-37.6053Q12.4512-36.6219 12.4512-35.2539Z"/>
  </g>
  <g id="Thin-M" transform="matrix(1 0 0 1 805.375 1126)">
   <path class="multicolor-0:systemGreenColor SFSymbolsPreview28CD41" d="M12.4512-35.2539Q12.4512-34.4666 13.007-33.9176Q13.5628-33.3687 14.3364-33.3687L49.1623-33.3687L49.1623 1.42212Q49.1623 2.19498 49.7112 2.76833Q50.2602 3.34167 51.0468 3.34167Q51.8341 3.34167 52.3899 2.76833Q52.9457 2.19498 52.9457 1.42212L52.9457-33.3687L87.7228-33.3687Q88.5315-33.3687 89.0873-33.9176Q89.6431-34.4666 89.6431-35.2539Q89.6431-36.0413 89.0873-36.6146Q88.5315-37.188 87.7228-37.188L52.9457-37.188L52.9457-71.965Q52.9457-72.7386 52.3899-73.2941Q51.8341-73.8495 51.0468-73.8495Q50.2602-73.8495 49.7112-73.2941Q49.1623-72.7386 49.1623-71.965L49.1623-37.188L14.3364-37.188Q13.5628-37.188 13.007-36.6146Q12.4512-36.0413 12.4512-35.2539Z"/>
  </g>
  <g id="Ultralight-M" transform="matrix(1 0 0 1 509.156 1126)">
   <path class="multicolor-0:systemGreenColor SFSymbolsPreview28CD41" d="M12.4512-35.2539Q12.4512-34.7641 12.7914-34.4254Q13.1317-34.0866 13.6185-34.0866L49.3874-34.0866L49.3874 1.63727Q49.3874 2.12326 49.7261 2.48642Q50.0648 2.84958 50.5547 2.84958Q51.0445 2.84958 51.3847 2.48642Q51.725 2.12326 51.725 1.63727L51.725-34.0866L87.4458-34.0866Q87.9776-34.0866 88.3179-34.4254Q88.6581-34.7641 88.6581-35.2539Q88.6581-35.7437 88.3179-36.1069Q87.9776-36.47 87.4458-36.47L51.725-36.47L51.725-72.1901Q51.725-72.6768 51.3847-73.0171Q51.0445-73.3574 50.5547-73.3574Q50.0648-73.3574 49.7261-73.0171Q49.3874-72.6768 49.3874-72.1901L49.3874-36.47L13.6185-36.47Q13.1317-36.47 12.7914-36.1069Q12.4512-35.7437 12.4512-35.2539Z"/>
  </g>
  <g id="Black-S" transform="matrix(1 0 0 1 2889.36 696)">
   <path class="multicolor-0:systemGreenColor SFSymbolsPreview28CD41" d="M9.76562-35.2051Q9.76562-31.6406 12.2559-29.1504Q14.7461-26.6602 18.3105-26.6602L35.498-26.6602L35.498-9.47266Q35.498-5.9082 37.9883-3.41797Q40.4785-0.927734 44.043-0.927734Q47.6074-0.927734 50.0977-3.41797Q52.5879-5.9082 52.5879-9.47266L52.5879-26.6602L69.7754-26.6602Q73.3398-26.6602 75.8301-29.1504Q78.3203-31.6406 78.3203-35.2051Q78.3203-38.7695 75.8301-41.2598Q73.3398-43.75 69.7754-43.75L52.5879-43.75L52.5879-60.9375Q52.5879-64.502 50.0977-66.9922Q47.6074-69.4824 44.043-69.4824Q40.4785-69.4824 37.9883-66.9922Q35.498-64.502 35.498-60.9375L35.498-43.75L18.3105-43.75Q14.7461-43.75 12.2559-41.2598Q9.76562-38.7695 9.76562-35.2051Z"/>
  </g>
  <g id="Heavy-S" transform="matrix(1 0 0 1 2593.2 696)">
   <path class="multicolor-0:systemGreenColor SFSymbolsPreview28CD41" d="M9.76562-35.2165Q9.76562-32.1129 11.9446-29.9339Q14.1235-27.755 17.2272-27.755L36.0283-27.755L36.0283-8.95386Q36.0283-5.86243 38.2072-3.67737Q40.3862-1.49231 43.4898-1.49231Q46.5935-1.49231 48.7667-3.67737Q50.9399-5.86243 50.9399-8.95386L50.9399-27.755L69.7525-27.755Q72.8439-27.755 75.0233-29.9339Q77.2026-32.1129 77.2026-35.2165Q77.2026-38.3202 75.0233-40.4991Q72.8439-42.6781 69.7525-42.6781L50.9399-42.6781L50.9399-61.4792Q50.9399-64.5714 48.7667-66.7561Q46.5935-68.9407 43.4898-68.9407Q40.3862-68.9407 38.2072-66.7561Q36.0283-64.5714 36.0283-61.4792L36.0283-42.6781L17.2272-42.6781Q14.1235-42.6781 11.9446-40.4991Q9.76562-38.3202 9.76562-35.2165Z"/>
  </g>
  <g id="Bold-S" transform="matrix(1 0 0 1 2297.12 696)">
   <path class="multicolor-0:systemGreenColor SFSymbolsPreview28CD41" d="M9.76562-35.2295Q9.76562-32.6416 11.5967-30.8105Q13.4277-28.9795 16.0156-28.9795L36.6211-28.9795L36.6211-8.37402Q36.6211-5.81055 38.4521-3.96729Q40.2832-2.12402 42.8711-2.12402Q45.459-2.12402 47.2778-3.96729Q49.0967-5.81055 49.0967-8.37402L49.0967-28.9795L69.7266-28.9795Q72.29-28.9795 74.1211-30.8105Q75.9521-32.6416 75.9521-35.2295Q75.9521-37.8174 74.1211-39.6484Q72.29-41.4795 69.7266-41.4795L49.0967-41.4795L49.0967-62.085Q49.0967-64.6484 47.2778-66.4917Q45.459-68.335 42.8711-68.335Q40.2832-68.335 38.4521-66.4917Q36.6211-64.6484 36.6211-62.085L36.6211-41.4795L16.0156-41.4795Q13.4277-41.4795 11.5967-39.6484Q9.76562-37.8174 9.76562-35.2295Z"/>
  </g>
  <g id="Semibold-S" transform="matrix(1 0 0 1 2000.84 696)">
   <path class="multicolor-0:systemGreenColor SFSymbolsPreview28CD41" d="M9.76562-35.2386Q9.76562-33.0063 11.3567-31.4152Q12.9478-29.8241 15.1802-29.8241L37.03-29.8241L37.03-7.97424Q37.03-5.77469 38.6211-4.16718Q40.2122-2.55966 42.4446-2.55966Q44.677-2.55966 46.2513-4.16718Q47.8256-5.77469 47.8256-7.97424L47.8256-29.8241L69.709-29.8241Q71.9078-29.8241 73.4989-31.4152Q75.09-33.0063 75.09-35.2386Q75.09-37.471 73.4989-39.0621Q71.9078-40.6532 69.709-40.6532L47.8256-40.6532L47.8256-62.5023Q47.8256-64.7018 46.2513-66.3097Q44.677-67.9176 42.4446-67.9176Q40.2122-67.9176 38.6211-66.3097Q37.03-64.7018 37.03-62.5023L37.03-40.6532L15.1802-40.6532Q12.9478-40.6532 11.3567-39.0621Q9.76562-37.471 9.76562-35.2386Z"/>
  </g>
  <g id="Medium-S" transform="matrix(1 0 0 1 1704.45 696)">
   <path class="multicolor-0:systemGreenColor SFSymbolsPreview28CD41" d="M9.76562-35.2448Q9.76562-33.2825 11.1748-31.8733Q12.5839-30.4642 14.547-30.4642L37.3398-30.4642L37.3398-7.67059Q37.3398-5.74799 38.7489-4.319Q40.1581-2.89001 42.1211-2.89001Q44.0842-2.89001 45.4731-4.319Q46.862-5.74799 46.862-7.67059L46.862-30.4642L69.6953-30.4642Q71.6179-30.4642 73.027-31.8733Q74.4362-33.2825 74.4362-35.2448Q74.4362-37.2078 73.027-38.6169Q71.6179-40.0261 69.6953-40.0261L46.862-40.0261L46.862-62.8197Q46.862-64.7423 45.4731-66.1713Q44.0842-67.6003 42.1211-67.6003Q40.1581-67.6003 38.7489-66.1713Q37.3398-64.7423 37.3398-62.8197L37.3398-40.0261L14.547-40.0261Q12.5839-40.0261 11.1748-38.6169Q9.76562-37.2078 9.76562-35.2448Z"/>
  </g>
  <g id="Regular-S" transform="matrix(1 0 0 1 1408.17 696)">
   <path class="multicolor-0:systemGreenColor SFSymbolsPreview28CD41" d="M9.76562-35.2539Q9.76562-33.6426 10.9375-32.4707Q12.1094-31.2988 13.7207-31.2988L37.7441-31.2988L37.7441-7.27539Q37.7441-5.71289 38.916-4.5166Q40.0879-3.32031 41.6992-3.32031Q43.3105-3.32031 44.458-4.5166Q45.6055-5.71289 45.6055-7.27539L45.6055-31.2988L69.6777-31.2988Q71.2402-31.2988 72.4121-32.4707Q73.584-33.6426 73.584-35.2539Q73.584-36.8652 72.4121-38.0371Q71.2402-39.209 69.6777-39.209L45.6055-39.209L45.6055-63.2324Q45.6055-64.7949 44.458-65.9912Q43.3105-67.1875 41.6992-67.1875Q40.0879-67.1875 38.916-65.9912Q37.7441-64.7949 37.7441-63.2324L37.7441-39.209L13.7207-39.209Q12.1094-39.209 10.9375-38.0371Q9.76562-36.8652 9.76562-35.2539Z"/>
  </g>
  <g id="Light-S" transform="matrix(1 0 0 1 1112.1 696)">
   <path class="multicolor-0:systemGreenColor SFSymbolsPreview28CD41" d="M9.76562-35.2539Q9.76562-34.021 10.6575-33.1291Q11.5494-32.2372 12.7823-32.2372L38.0318-32.2372L38.0318-6.98776Q38.0318-5.78842 38.9236-4.87976Q39.8155-3.9711 41.0484-3.9711Q42.2813-3.9711 43.1564-4.87976Q44.0315-5.78842 44.0315-6.98776L44.0315-32.2372L69.3146-32.2372Q70.5139-32.2372 71.4058-33.1291Q72.2977-34.021 72.2977-35.2539Q72.2977-36.4868 71.4058-37.3787Q70.5139-38.2706 69.3146-38.2706L44.0315-38.2706L44.0315-63.5201Q44.0315-64.7194 43.1564-65.6281Q42.2813-66.5367 41.0484-66.5367Q39.8155-66.5367 38.9236-65.6281Q38.0318-64.7194 38.0318-63.5201L38.0318-38.2706L12.7823-38.2706Q11.5494-38.2706 10.6575-37.3787Q9.76562-36.4868 9.76562-35.2539Z"/>
  </g>
  <g id="Thin-S" transform="matrix(1 0 0 1 816.241 696)">
   <path class="multicolor-0:systemGreenColor SFSymbolsPreview28CD41" d="M9.76562-35.2539Q9.76562-34.5215 10.2871-34Q10.8086-33.4785 11.541-33.4785L38.4117-33.4785L38.4117-6.60782Q38.4117-5.88837 38.9336-5.36003Q39.4554-4.8317 40.1878-4.8317Q40.9203-4.8317 41.4349-5.36003Q41.9495-5.88837 41.9495-6.60782L41.9495-33.4785L68.8339-33.4785Q69.5526-33.4785 70.0741-34Q70.5956-34.5215 70.5956-35.2539Q70.5956-35.9863 70.0741-36.5078Q69.5526-37.0293 68.8339-37.0293L41.9495-37.0293L41.9495-63.9Q41.9495-64.6194 41.4349-65.1478Q40.9203-65.6761 40.1878-65.6761Q39.4554-65.6761 38.9336-65.1478Q38.4117-64.6194 38.4117-63.9L38.4117-37.0293L11.541-37.0293Q10.8086-37.0293 10.2871-36.5078Q9.76562-35.9863 9.76562-35.2539Z"/>
  </g>
  <g id="Ultralight-S" transform="matrix(1 0 0 1 519.966 696)">
   <path class="multicolor-0:systemGreenColor SFSymbolsPreview28CD41" d="M9.76562-35.2539Q9.76562-34.7778 10.0975-34.446Q10.4294-34.1141 10.9055-34.1141L38.607-34.1141L38.607-6.41251Q38.607-5.94025 38.9389-5.60646Q39.2708-5.27267 39.7469-5.27267Q40.2229-5.27267 40.5529-5.60646Q40.8829-5.94025 40.8829-6.41251L40.8829-34.1141L68.5883-34.1141Q69.0605-34.1141 69.3924-34.446Q69.7243-34.7778 69.7243-35.2539Q69.7243-35.73 69.3924-36.0619Q69.0605-36.3937 68.5883-36.3937L40.8829-36.3937L40.8829-64.0953Q40.8829-64.5676 40.5529-64.9014Q40.2229-65.2351 39.7469-65.2351Q39.2708-65.2351 38.9389-64.9014Q38.607-64.5676 38.607-64.0953L38.607-36.3937L10.9055-36.3937Q10.4294-36.3937 10.0975-36.0619Q9.76562-35.73 9.76562-35.2539Z"/>
  </g>
 </g>
</svg>
