<?xml version="1.0" encoding="UTF-8"?>
<!--Generator: Apple Native CoreSVG 149-->
<!DOCTYPE svg
PUBLIC "-//W3C//DTD SVG 1.1//EN"
       "http://www.w3.org/Graphics/SVG/1.1/DTD/svg11.dtd">
<svg version="1.1" xmlns="http://www.w3.org/2000/svg" xmlns:xlink="http://www.w3.org/1999/xlink" width="3300" height="2200">
 <!--glyph: "uni10026E.medium", point size: 100.0, font version: "17.0d9e1", template writer version: "59"-->
 <style>.multicolor-0:tintColor {fill:#007AFF;opacity:1.0}
.multicolor-1:white {fill:#FFFFFF;opacity:1.0}

.hierarchical-0:tertiary {fill:#8E8E8E}
.hierarchical-1:primary {fill:#212121}

.SFSymbolsPreview007AFF {fill:#007AFF;opacity:1.0}
.SFSymbolsPreviewFFFFFF {fill:#FFFFFF;opacity:1.0}
</style>
 <g id="Notes">
  <rect height="2200" id="artboard" style="fill:white;opacity:1" width="3300" x="0" y="0"/>
  <line style="fill:none;stroke:black;opacity:1;stroke-width:0.5;" x1="263" x2="3036" y1="292" y2="292"/>
  <text style="stroke:none;fill:black;font-family:sans-serif;font-size:13;font-weight:bold;" transform="matrix(1 0 0 1 263 322)">Weight/Scale Variations</text>
  <text style="stroke:none;fill:black;font-family:sans-serif;font-size:13;text-anchor:middle;" transform="matrix(1 0 0 1 559.711 322)">Ultralight</text>
  <text style="stroke:none;fill:black;font-family:sans-serif;font-size:13;text-anchor:middle;" transform="matrix(1 0 0 1 856.422 322)">Thin</text>
  <text style="stroke:none;fill:black;font-family:sans-serif;font-size:13;text-anchor:middle;" transform="matrix(1 0 0 1 1153.13 322)">Light</text>
  <text style="stroke:none;fill:black;font-family:sans-serif;font-size:13;text-anchor:middle;" transform="matrix(1 0 0 1 1449.84 322)">Regular</text>
  <text style="stroke:none;fill:black;font-family:sans-serif;font-size:13;text-anchor:middle;" transform="matrix(1 0 0 1 1746.56 322)">Medium</text>
  <text style="stroke:none;fill:black;font-family:sans-serif;font-size:13;text-anchor:middle;" transform="matrix(1 0 0 1 2043.27 322)">Semibold</text>
  <text style="stroke:none;fill:black;font-family:sans-serif;font-size:13;text-anchor:middle;" transform="matrix(1 0 0 1 2339.98 322)">Bold</text>
  <text style="stroke:none;fill:black;font-family:sans-serif;font-size:13;text-anchor:middle;" transform="matrix(1 0 0 1 2636.69 322)">Heavy</text>
  <text style="stroke:none;fill:black;font-family:sans-serif;font-size:13;text-anchor:middle;" transform="matrix(1 0 0 1 2933.4 322)">Black</text>
  <line style="fill:none;stroke:black;opacity:1;stroke-width:0.5;" x1="263" x2="3036" y1="1903" y2="1903"/>
  <g transform="matrix(1 0 0 1 263 1933)">
   <path d="M9.24805 0.830078Q10.8691 0.830078 12.2949 0.214844Q13.7207-0.400391 14.8096-1.49414Q15.8984-2.58789 16.5186-4.01367Q17.1387-5.43945 17.1387-7.05078Q17.1387-8.66211 16.5186-10.0879Q15.8984-11.5137 14.8047-12.6074Q13.7109-13.7012 12.2852-14.3164Q10.8594-14.9316 9.23828-14.9316Q7.62695-14.9316 6.20117-14.3164Q4.77539-13.7012 3.69141-12.6074Q2.60742-11.5137 1.9873-10.0879Q1.36719-8.66211 1.36719-7.05078Q1.36719-5.43945 1.9873-4.01367Q2.60742-2.58789 3.69629-1.49414Q4.78516-0.400391 6.21094 0.214844Q7.63672 0.830078 9.24805 0.830078ZM9.24805-0.654297Q7.91992-0.654297 6.7627-1.14746Q5.60547-1.64062 4.73145-2.51953Q3.85742-3.39844 3.36426-4.56055Q2.87109-5.72266 2.87109-7.05078Q2.87109-8.37891 3.35938-9.54102Q3.84766-10.7031 4.72168-11.582Q5.5957-12.4609 6.75293-12.9541Q7.91016-13.4473 9.23828-13.4473Q10.5762-13.4473 11.7334-12.9541Q12.8906-12.4609 13.7695-11.582Q14.6484-10.7031 15.1465-9.54102Q15.6445-8.37891 15.6445-7.05078Q15.6445-5.72266 15.1514-4.56055Q14.6582-3.39844 13.7842-2.51953Q12.9102-1.64062 11.748-1.14746Q10.5859-0.654297 9.24805-0.654297ZM5.83984-7.04102Q5.83984-6.71875 6.04492-6.51855Q6.25-6.31836 6.5918-6.31836L8.50586-6.31836L8.50586-4.39453Q8.50586-4.0625 8.70605-3.85742Q8.90625-3.65234 9.22852-3.65234Q9.56055-3.65234 9.76562-3.85742Q9.9707-4.0625 9.9707-4.39453L9.9707-6.31836L11.8945-6.31836Q12.2266-6.31836 12.4316-6.51855Q12.6367-6.71875 12.6367-7.04102Q12.6367-7.37305 12.4316-7.57812Q12.2266-7.7832 11.8945-7.7832L9.9707-7.7832L9.9707-9.69727Q9.9707-10.0391 9.76562-10.2441Q9.56055-10.4492 9.22852-10.4492Q8.90625-10.4492 8.70605-10.2441Q8.50586-10.0391 8.50586-9.69727L8.50586-7.7832L6.5918-7.7832Q6.25-7.7832 6.04492-7.57812Q5.83984-7.37305 5.83984-7.04102Z"/>
  </g>
  <g transform="matrix(1 0 0 1 281.867 1933)">
   <path d="M11.709 2.91016Q13.75 2.91016 15.5518 2.12891Q17.3535 1.34766 18.7305-0.0292969Q20.1074-1.40625 20.8887-3.20801Q21.6699-5.00977 21.6699-7.05078Q21.6699-9.0918 20.8887-10.8936Q20.1074-12.6953 18.7305-14.0723Q17.3535-15.4492 15.5469-16.2305Q13.7402-17.0117 11.6992-17.0117Q9.6582-17.0117 7.85645-16.2305Q6.05469-15.4492 4.68262-14.0723Q3.31055-12.6953 2.5293-10.8936Q1.74805-9.0918 1.74805-7.05078Q1.74805-5.00977 2.5293-3.20801Q3.31055-1.40625 4.6875-0.0292969Q6.06445 1.34766 7.86621 2.12891Q9.66797 2.91016 11.709 2.91016ZM11.709 1.25Q9.98047 1.25 8.47656 0.605469Q6.97266-0.0390625 5.83496-1.17676Q4.69727-2.31445 4.05762-3.81836Q3.41797-5.32227 3.41797-7.05078Q3.41797-8.7793 4.05762-10.2832Q4.69727-11.7871 5.83008-12.9297Q6.96289-14.0723 8.4668-14.7119Q9.9707-15.3516 11.6992-15.3516Q13.4277-15.3516 14.9316-14.7119Q16.4355-14.0723 17.5781-12.9297Q18.7207-11.7871 19.3652-10.2832Q20.0098-8.7793 20.0098-7.05078Q20.0098-5.32227 19.3701-3.81836Q18.7305-2.31445 17.5928-1.17676Q16.4551-0.0390625 14.9463 0.605469Q13.4375 1.25 11.709 1.25ZM7.39258-7.04102Q7.39258-6.68945 7.62695-6.46484Q7.86133-6.24023 8.23242-6.24023L10.8789-6.24023L10.8789-3.57422Q10.8789-3.21289 11.1035-2.9834Q11.3281-2.75391 11.6797-2.75391Q12.0508-2.75391 12.2852-2.9834Q12.5195-3.21289 12.5195-3.57422L12.5195-6.24023L15.1758-6.24023Q15.5371-6.24023 15.7715-6.46484Q16.0059-6.68945 16.0059-7.04102Q16.0059-7.41211 15.7715-7.6416Q15.5371-7.87109 15.1758-7.87109L12.5195-7.87109L12.5195-10.5176Q12.5195-10.8984 12.2852-11.1279Q12.0508-11.3574 11.6797-11.3574Q11.3281-11.3574 11.1035-11.1279Q10.8789-10.8984 10.8789-10.5176L10.8789-7.87109L8.23242-7.87109Q7.85156-7.87109 7.62207-7.6416Q7.39258-7.41211 7.39258-7.04102Z"/>
  </g>
  <g transform="matrix(1 0 0 1 305.646 1933)">
   <path d="M14.9707 5.66406Q17.0605 5.66406 18.96 5.01465Q20.8594 4.36523 22.4512 3.19336Q24.043 2.02148 25.2197 0.429688Q26.3965-1.16211 27.0459-3.06641Q27.6953-4.9707 27.6953-7.05078Q27.6953-9.14062 27.0459-11.04Q26.3965-12.9395 25.2197-14.5312Q24.043-16.123 22.4512-17.2998Q20.8594-18.4766 18.9551-19.126Q17.0508-19.7754 14.9609-19.7754Q12.8711-19.7754 10.9717-19.126Q9.07227-18.4766 7.48535-17.2998Q5.89844-16.123 4.72168-14.5312Q3.54492-12.9395 2.90039-11.04Q2.25586-9.14062 2.25586-7.05078Q2.25586-4.9707 2.90527-3.06641Q3.55469-1.16211 4.72656 0.429688Q5.89844 2.02148 7.49023 3.19336Q9.08203 4.36523 10.9814 5.01465Q12.8809 5.66406 14.9707 5.66406ZM14.9707 3.84766Q13.1641 3.84766 11.5283 3.2959Q9.89258 2.74414 8.53516 1.74805Q7.17773 0.751953 6.17676-0.610352Q5.17578-1.97266 4.62891-3.6084Q4.08203-5.24414 4.08203-7.05078Q4.08203-8.86719 4.62891-10.5029Q5.17578-12.1387 6.17188-13.501Q7.16797-14.8633 8.52539-15.8594Q9.88281-16.8555 11.5186-17.4023Q13.1543-17.9492 14.9609-17.9492Q16.7773-17.9492 18.4131-17.4023Q20.0488-16.8555 21.4111-15.8594Q22.7734-14.8633 23.7695-13.501Q24.7656-12.1387 25.3174-10.5029Q25.8691-8.86719 25.8691-7.05078Q25.8789-5.24414 25.332-3.6084Q24.7852-1.97266 23.7842-0.610352Q22.7832 0.751953 21.4209 1.74805Q20.0586 2.74414 18.4229 3.2959Q16.7871 3.84766 14.9707 3.84766ZM9.45312-7.04102Q9.45312-6.66016 9.71191-6.41113Q9.9707-6.16211 10.3711-6.16211L14.0625-6.16211L14.0625-2.46094Q14.0625-2.06055 14.3115-1.80664Q14.5605-1.55273 14.9414-1.55273Q15.3516-1.55273 15.6055-1.80664Q15.8594-2.06055 15.8594-2.46094L15.8594-6.16211L19.5605-6.16211Q19.9609-6.16211 20.2148-6.41113Q20.4688-6.66016 20.4688-7.04102Q20.4688-7.45117 20.2148-7.70508Q19.9609-7.95898 19.5605-7.95898L15.8594-7.95898L15.8594-11.6504Q15.8594-12.0605 15.6055-12.3145Q15.3516-12.5684 14.9414-12.5684Q14.5605-12.5684 14.3115-12.3096Q14.0625-12.0508 14.0625-11.6504L14.0625-7.95898L10.3711-7.95898Q9.96094-7.95898 9.70703-7.70508Q9.45312-7.45117 9.45312-7.04102Z"/>
  </g>
  <text style="stroke:none;fill:black;font-family:sans-serif;font-size:13;font-weight:bold;" transform="matrix(1 0 0 1 263 1953)">Design Variations</text>
  <text style="stroke:none;fill:black;font-family:sans-serif;font-size:13;" transform="matrix(1 0 0 1 263 1971)">Symbols are supported in up to nine weights and three scales.</text>
  <text style="stroke:none;fill:black;font-family:sans-serif;font-size:13;" transform="matrix(1 0 0 1 263 1989)">For optimal layout with text and other symbols, vertically align</text>
  <text style="stroke:none;fill:black;font-family:sans-serif;font-size:13;" transform="matrix(1 0 0 1 263 2007)">symbols with the adjacent text.</text>
  <line style="fill:none;stroke:#00AEEF;stroke-width:0.5;opacity:1.0;" x1="776" x2="776" y1="1919" y2="1933"/>
  <g transform="matrix(1 0 0 1 776 1933)">
   <path d="M3.31055 0.15625Q3.70117 0.15625 3.91602-0.00976562Q4.13086-0.175781 4.26758-0.585938L5.52734-4.0332L11.2891-4.0332L12.5488-0.585938Q12.6855-0.175781 12.9004-0.00976562Q13.1152 0.15625 13.4961 0.15625Q13.8867 0.15625 14.1162-0.0585938Q14.3457-0.273438 14.3457-0.644531Q14.3457-0.869141 14.2383-1.17188L9.6582-13.3691Q9.48242-13.8184 9.17969-14.043Q8.87695-14.2676 8.4082-14.2676Q7.5-14.2676 7.17773-13.3789L2.59766-1.16211Q2.49023-0.859375 2.49023-0.634766Q2.49023-0.263672 2.70996-0.0537109Q2.92969 0.15625 3.31055 0.15625ZM6.00586-5.51758L8.37891-12.0898L8.42773-12.0898L10.8008-5.51758Z"/>
  </g>
  <line style="fill:none;stroke:#00AEEF;stroke-width:0.5;opacity:1.0;" x1="793.197" x2="793.197" y1="1919" y2="1933"/>
  <text style="stroke:none;fill:black;font-family:sans-serif;font-size:13;font-weight:bold;" transform="matrix(1 0 0 1 776 1953)">Margins</text>
  <text style="stroke:none;fill:black;font-family:sans-serif;font-size:13;" transform="matrix(1 0 0 1 776 1971)">Leading and trailing margins on the left and right side of each symbol</text>
  <text style="stroke:none;fill:black;font-family:sans-serif;font-size:13;" transform="matrix(1 0 0 1 776 1989)">can be adjusted by modifying the x-location of the margin guidelines.</text>
  <text style="stroke:none;fill:black;font-family:sans-serif;font-size:13;" transform="matrix(1 0 0 1 776 2007)">Modifications are automatically applied proportionally to all</text>
  <text style="stroke:none;fill:black;font-family:sans-serif;font-size:13;" transform="matrix(1 0 0 1 776 2025)">scales and weights.</text>
  <g transform="matrix(1 0 0 1 1289 1933)">
   <path d="M2.8418 1.86523L4.54102 3.57422Q5.18555 4.22852 5.90332 4.17969Q6.62109 4.13086 7.31445 3.35938L18.0078-8.42773L17.041-9.4043L6.42578 2.27539Q6.16211 2.57812 5.89355 2.61719Q5.625 2.65625 5.27344 2.30469L4.10156 1.14258Q3.75 0.791016 3.79395 0.522461Q3.83789 0.253906 4.14062-0.0195312L15.6152-10.8203L14.6387-11.7871L3.04688-0.898438Q2.30469-0.214844 2.25098 0.498047Q2.19727 1.21094 2.8418 1.86523ZM9.25781-16.3281Q8.94531-16.0254 8.90625-15.6348Q8.86719-15.2441 9.04297-14.9512Q9.21875-14.6777 9.55566-14.541Q9.89258-14.4043 10.3809-14.5215Q11.4746-14.7754 12.5977-14.7314Q13.7207-14.6875 14.7949-13.9844L14.209-12.5293Q13.9551-11.9043 14.0674-11.4404Q14.1797-10.9766 14.5801-10.5664L16.875-8.25195Q17.2363-7.88086 17.5781-7.82227Q17.9199-7.76367 18.3398-7.8418L19.4043-8.03711L20.0684-7.36328L20.0293-6.80664Q20-6.43555 20.1221-6.12305Q20.2441-5.81055 20.6055-5.44922L21.3672-4.70703Q21.7285-4.3457 22.1533-4.33105Q22.5781-4.31641 22.9297-4.66797L25.8398-7.58789Q26.1914-7.93945 26.1816-8.35449Q26.1719-8.76953 25.8105-9.13086L25.0391-9.89258Q24.6875-10.2539 24.3799-10.3857Q24.0723-10.5176 23.7109-10.4883L23.1348-10.4395L22.4902-11.0742L22.7344-12.1973Q22.832-12.6172 22.6953-12.9834Q22.5586-13.3496 22.1191-13.7891L19.9219-15.9766Q18.6719-17.2168 17.2607-17.8369Q15.8496-18.457 14.4189-18.4814Q12.9883-18.5059 11.665-17.959Q10.3418-17.4121 9.25781-16.3281ZM10.752-15.957Q11.6602-16.6211 12.7002-16.9043Q13.7402-17.1875 14.8047-17.085Q15.8691-16.9824 16.8701-16.5137Q17.8711-16.0449 18.7012-15.2051L21.1328-12.793Q21.3086-12.6172 21.3525-12.4512Q21.3965-12.2852 21.3379-12.0312L21.0156-10.5469L22.5195-9.0625L23.5059-9.12109Q23.6914-9.13086 23.7891-9.09668Q23.8867-9.0625 24.0332-8.91602L24.6094-8.33984L22.168-5.89844L21.5918-6.47461Q21.4453-6.62109 21.4062-6.71875Q21.3672-6.81641 21.377-7.01172L21.4453-7.98828L19.9512-9.47266L18.4277-9.21875Q18.1836-9.16992 18.042-9.2041Q17.9004-9.23828 17.7148-9.41406L15.7129-11.416Q15.5176-11.5918 15.4932-11.7529Q15.4688-11.9141 15.5859-12.1875L16.4648-14.2773Q15.293-15.3711 13.8281-15.791Q12.3633-16.2109 10.8398-15.7617Q10.7227-15.7324 10.6885-15.8057Q10.6543-15.8789 10.752-15.957Z"/>
  </g>
  <text style="stroke:none;fill:black;font-family:sans-serif;font-size:13;font-weight:bold;" transform="matrix(1 0 0 1 1289 1953)">Exporting</text>
  <text style="stroke:none;fill:black;font-family:sans-serif;font-size:13;" transform="matrix(1 0 0 1 1289 1971)">Symbols should be outlined when exporting to ensure the</text>
  <text style="stroke:none;fill:black;font-family:sans-serif;font-size:13;" transform="matrix(1 0 0 1 1289 1989)">design is preserved when submitting to Xcode.</text>
  <text id="template-version" style="stroke:none;fill:black;font-family:sans-serif;font-size:13;text-anchor:end;" transform="matrix(1 0 0 1 3036 1933)">Template v.3.0</text>
  <text style="stroke:none;fill:black;font-family:sans-serif;font-size:13;text-anchor:end;" transform="matrix(1 0 0 1 3036 1951)">Requires Xcode 13 or greater</text>
  <text id="descriptive-name" style="stroke:none;fill:black;font-family:sans-serif;font-size:13;text-anchor:end;" transform="matrix(1 0 0 1 3036 1969)">Generated from person.crop.circle.fill</text>
  <text style="stroke:none;fill:black;font-family:sans-serif;font-size:13;text-anchor:end;" transform="matrix(1 0 0 1 3036 1987)">Typeset at 100 points</text>
  <text style="stroke:none;fill:black;font-family:sans-serif;font-size:13;" transform="matrix(1 0 0 1 263 726)">Small</text>
  <text style="stroke:none;fill:black;font-family:sans-serif;font-size:13;" transform="matrix(1 0 0 1 263 1156)">Medium</text>
  <text style="stroke:none;fill:black;font-family:sans-serif;font-size:13;" transform="matrix(1 0 0 1 263 1586)">Large</text>
 </g>
 <g id="Guides">
  <g id="H-reference" style="fill:#27AAE1;stroke:none;" transform="matrix(1 0 0 1 339 696)">
   <path d="M0.993347 0L3.6377 0L29.3282-67.1326L30.0301-67.1326L30.0301-70.459L28.1227-70.459ZM11.6882-24.4797L46.9818-24.4797L46.2311-26.7288L12.4382-26.7288ZM55.1193 0L57.7637 0L30.6381-70.459L29.4327-70.459L29.4327-67.1326Z"/>
  </g>
  <line id="Baseline-S" style="fill:none;stroke:#27AAE1;opacity:1;stroke-width:0.5;" x1="263" x2="3036" y1="696" y2="696"/>
  <line id="Capline-S" style="fill:none;stroke:#27AAE1;opacity:1;stroke-width:0.5;" x1="263" x2="3036" y1="625.541" y2="625.541"/>
  <g id="H-reference" style="fill:#27AAE1;stroke:none;" transform="matrix(1 0 0 1 339 1126)">
   <path d="M0.993347 0L3.6377 0L29.3282-67.1326L30.0301-67.1326L30.0301-70.459L28.1227-70.459ZM11.6882-24.4797L46.9818-24.4797L46.2311-26.7288L12.4382-26.7288ZM55.1193 0L57.7637 0L30.6381-70.459L29.4327-70.459L29.4327-67.1326Z"/>
  </g>
  <line id="Baseline-M" style="fill:none;stroke:#27AAE1;opacity:1;stroke-width:0.5;" x1="263" x2="3036" y1="1126" y2="1126"/>
  <line id="Capline-M" style="fill:none;stroke:#27AAE1;opacity:1;stroke-width:0.5;" x1="263" x2="3036" y1="1055.54" y2="1055.54"/>
  <g id="H-reference" style="fill:#27AAE1;stroke:none;" transform="matrix(1 0 0 1 339 1556)">
   <path d="M0.993347 0L3.6377 0L29.3282-67.1326L30.0301-67.1326L30.0301-70.459L28.1227-70.459ZM11.6882-24.4797L46.9818-24.4797L46.2311-26.7288L12.4382-26.7288ZM55.1193 0L57.7637 0L30.6381-70.459L29.4327-70.459L29.4327-67.1326Z"/>
  </g>
  <line id="Baseline-L" style="fill:none;stroke:#27AAE1;opacity:1;stroke-width:0.5;" x1="263" x2="3036" y1="1556" y2="1556"/>
  <line id="Capline-L" style="fill:none;stroke:#27AAE1;opacity:1;stroke-width:0.5;" x1="263" x2="3036" y1="1485.54" y2="1485.54"/>
  <line id="left-margin-Regular-M" style="fill:none;stroke:#00AEEF;stroke-width:0.5;opacity:1.0;" x1="1391.3" x2="1391.3" y1="1030.79" y2="1150.12"/>
  <line id="right-margin-Regular-M" style="fill:none;stroke:#00AEEF;stroke-width:0.5;opacity:1.0;" x1="1508.39" x2="1508.39" y1="1030.79" y2="1150.12"/>
 </g>
 <g id="Symbols">
  <g id="Black-L" transform="matrix(1 0 0 1 2854.05 1556)">
   <path class="multicolor-0:tintColor hierarchical-0:tertiary SFSymbolsPreview007AFF" d="M79.3457 32.8613Q90.5762 32.8613 100.757 29.3945Q110.938 25.9277 119.458 19.6777Q127.979 13.4277 134.229 4.90723Q140.479-3.61328 143.945-13.7939Q147.412-23.9746 147.412-35.2051Q147.412-46.4355 143.945-56.6162Q140.479-66.7969 134.204-75.3174Q127.93-83.8379 119.434-90.1123Q110.938-96.3867 100.732-99.8291Q90.5273-103.271 79.2969-103.271Q68.1152-103.271 57.9102-99.8291Q47.7051-96.3867 39.209-90.1123Q30.7129-83.8379 24.4385-75.3174Q18.1641-66.7969 14.7217-56.6162Q11.2793-46.4355 11.2793-35.2051Q11.2793-23.9746 14.7217-13.7939Q18.1641-3.61328 24.4385 4.90723Q30.7129 13.4277 39.2334 19.6777Q47.7539 25.9277 57.9346 29.3945Q68.1152 32.8613 79.3457 32.8613Z"/>
   <path class="multicolor-1:white hierarchical-1:primary SFSymbolsPreviewFFFFFF" d="M79.3457 17.9688Q72.998 17.9688 65.918 16.2109Q58.8379 14.4531 52.3682 10.9863Q45.8984 7.51953 41.3574 2.44141Q45.6055-3.17383 51.2695-7.03125Q56.9336-10.8887 63.9648-12.8662Q70.9961-14.8438 79.3457-14.8438Q87.5488-14.8438 94.5801-12.915Q101.611-10.9863 107.324-7.12891Q113.037-3.27148 117.285 2.44141Q112.793 7.51953 106.323 10.9863Q99.8535 14.4531 92.7734 16.2109Q85.6934 17.9688 79.3457 17.9688ZM79.3457-26.2695Q72.8027-26.3184 67.627-29.6631Q62.4512-33.0078 59.4238-38.6475Q56.3965-44.2871 56.3965-51.2695Q56.3477-57.8613 59.3994-63.4521Q62.4512-69.043 67.6758-72.4121Q72.9004-75.7812 79.3457-75.7812Q85.7422-75.7812 90.9424-72.4121Q96.1426-69.043 99.1943-63.4521Q102.246-57.8613 102.246-51.2695Q102.246-44.2871 99.2432-38.623Q96.2402-32.959 91.04-29.6143Q85.8398-26.2695 79.3457-26.2695Z"/>
  </g>
  <g id="Heavy-L" transform="matrix(1 0 0 1 2558.4 1556)">
   <path class="multicolor-0:tintColor hierarchical-0:tertiary SFSymbolsPreview007AFF" d="M78.2715 31.7871Q89.3555 31.7871 99.3652 28.3691Q109.375 24.9512 117.749 18.7988Q126.123 12.6465 132.3 4.24805Q138.477-4.15039 141.895-14.1602Q145.312-24.1699 145.312-35.2051Q145.312-46.2402 141.895-56.2744Q138.477-66.3086 132.3-74.6826Q126.123-83.0566 117.749-89.2578Q109.375-95.459 99.3408-98.8525Q89.3066-102.246 78.2227-102.246Q67.2363-102.246 57.2021-98.8525Q47.168-95.459 38.7939-89.2578Q30.4199-83.0566 24.2432-74.6826Q18.0664-66.3086 14.6729-56.2744Q11.2793-46.2402 11.2793-35.2051Q11.2793-24.1699 14.6729-14.1602Q18.0664-4.15039 24.2432 4.24805Q30.4199 12.6465 38.8184 18.7988Q47.2168 24.9512 57.2266 28.3691Q67.2363 31.7871 78.2715 31.7871Z"/>
   <path class="multicolor-1:white hierarchical-1:primary SFSymbolsPreviewFFFFFF" d="M78.2715 18.5059Q71.6309 18.5059 64.5264 16.6748Q57.4219 14.8438 50.9766 11.3037Q44.5312 7.76367 39.9414 2.68555Q43.9941-2.88086 49.7314-6.7627Q55.4688-10.6445 62.6709-12.6465Q69.873-14.6484 78.2715-14.6484Q86.5723-14.6484 93.75-12.6709Q100.928-10.6934 106.714-6.83594Q112.5-2.97852 116.602 2.68555Q112.012 7.76367 105.591 11.3037Q99.1699 14.8438 92.041 16.6748Q84.9121 18.5059 78.2715 18.5059ZM78.2715-25.8789Q71.875-25.9277 66.748-29.2236Q61.6211-32.5195 58.6426-38.0859Q55.6641-43.6523 55.6641-50.6348Q55.6152-57.1289 58.6182-62.6465Q61.6211-68.1641 66.7725-71.4844Q71.9238-74.8047 78.2715-74.8047Q84.5703-74.8047 89.6973-71.4844Q94.8242-68.1641 97.8516-62.6465Q100.879-57.1289 100.879-50.6348Q100.879-43.6523 97.9004-38.0615Q94.9219-32.4707 89.7949-29.1748Q84.668-25.8789 78.2715-25.8789Z"/>
  </g>
  <g id="Bold-L" transform="matrix(1 0 0 1 2262.87 1556)">
   <path class="multicolor-0:tintColor hierarchical-0:tertiary SFSymbolsPreview007AFF" d="M77.0996 30.6152Q87.9395 30.6152 97.7783 27.2461Q107.617 23.877 115.869 17.8223Q124.121 11.7676 130.176 3.51562Q136.23-4.73633 139.6-14.5752Q142.969-24.4141 142.969-35.2539Q142.969-46.0938 139.6-55.9326Q136.23-65.7715 130.151-73.999Q124.072-82.2266 115.845-88.3057Q107.617-94.3848 97.7539-97.7295Q87.8906-101.074 77.0508-101.074Q66.2598-101.074 56.3965-97.7295Q46.5332-94.3848 38.3301-88.3057Q30.127-82.2266 24.0479-73.999Q17.9688-65.7715 14.624-55.9326Q11.2793-46.0938 11.2793-35.2539Q11.2793-24.4141 14.624-14.5752Q17.9688-4.73633 24.0479 3.51562Q30.127 11.7676 38.3545 17.8223Q46.582 23.877 56.4209 27.2461Q66.2598 30.6152 77.0996 30.6152Z"/>
   <path class="multicolor-1:white hierarchical-1:primary SFSymbolsPreviewFFFFFF" d="M77.0996 19.0918Q70.1172 19.0918 62.9639 17.1875Q55.8105 15.2832 49.4385 11.6943Q43.0664 8.10547 38.3789 2.97852Q42.2363-2.53906 48.0469-6.44531Q53.8574-10.3516 61.2305-12.4023Q68.6035-14.4531 77.0996-14.4531Q85.498-14.4531 92.8711-12.4268Q100.244-10.4004 106.104-6.51855Q111.963-2.63672 115.82 2.97852Q111.182 8.10547 104.785 11.6943Q98.3887 15.2832 91.2354 17.1875Q84.082 19.0918 77.0996 19.0918ZM77.0996-25.4883Q70.8008-25.5371 65.7715-28.7842Q60.7422-32.0312 57.8125-37.5244Q54.8828-43.0176 54.8828-49.9023Q54.834-56.3477 57.7881-61.792Q60.7422-67.2363 65.8203-70.5078Q70.8984-73.7793 77.0996-73.7793Q83.3008-73.7793 88.3545-70.5078Q93.4082-67.2363 96.3623-61.792Q99.3164-56.3477 99.3164-49.9023Q99.3164-43.0176 96.3867-37.5Q93.457-31.9824 88.4277-28.7354Q83.3984-25.4883 77.0996-25.4883Z"/>
  </g>
  <g id="Semibold-L" transform="matrix(1 0 0 1 1966.97 1556)">
   <path class="multicolor-0:tintColor hierarchical-0:tertiary SFSymbolsPreview007AFF" d="M76.2695 29.7852Q86.9629 29.7852 96.6797 26.4648Q106.396 23.1445 114.551 17.1631Q122.705 11.1816 128.687 3.02734Q134.668-5.12695 137.988-14.8438Q141.309-24.5605 141.309-35.2539Q141.309-45.9473 137.988-55.6641Q134.668-65.3809 128.662-73.5107Q122.656-81.6406 114.526-87.6465Q106.396-93.6523 96.6553-96.9727Q86.9141-100.293 76.2207-100.293Q65.5273-100.293 55.8105-96.9727Q46.0938-93.6523 37.9883-87.6465Q29.8828-81.6406 23.877-73.5107Q17.8711-65.3809 14.5752-55.6641Q11.2793-45.9473 11.2793-35.2539Q11.2793-24.5605 14.5996-14.8438Q17.9199-5.12695 23.9014 3.02734Q29.8828 11.1816 38.0127 17.1631Q46.1426 23.1445 55.8594 26.4648Q65.5762 29.7852 76.2695 29.7852Z"/>
   <path class="multicolor-1:white hierarchical-1:primary SFSymbolsPreviewFFFFFF" d="M76.2695 19.4824Q69.043 19.4824 61.8652 17.5293Q54.6875 15.5762 48.3398 11.9385Q41.9922 8.30078 37.3047 3.17383Q40.9668-2.29492 46.8262-6.20117Q52.6855-10.1074 60.1807-12.1826Q67.6758-14.2578 76.2695-14.2578Q84.7168-14.2578 92.2119-12.2314Q99.707-10.2051 105.615-6.29883Q111.523-2.39258 115.234 3.17383Q110.547 8.30078 104.199 11.9385Q97.8516 15.5762 90.6738 17.5293Q83.4961 19.4824 76.2695 19.4824ZM76.2695-25.1953Q70.0684-25.2441 65.0879-28.4424Q60.1074-31.6406 57.2021-37.085Q54.2969-42.5293 54.2969-49.3652Q54.248-55.8105 57.1777-61.1816Q60.1074-66.5527 65.1123-69.7754Q70.1172-72.998 76.2695-72.998Q82.4219-72.998 87.4023-69.7754Q92.3828-66.5527 95.3125-61.1816Q98.2422-55.8105 98.2422-49.3652Q98.2422-42.5293 95.3369-37.0605Q92.4316-31.5918 87.4512-28.3691Q82.4707-25.1465 76.2695-25.1953Z"/>
  </g>
  <g id="Medium-L" transform="matrix(1 0 0 1 1670.87 1556)">
   <path class="multicolor-0:tintColor hierarchical-0:tertiary SFSymbolsPreview007AFF" d="M75.6836 29.1504Q86.2305 29.1504 95.8496 25.8545Q105.469 22.5586 113.55 16.626Q121.631 10.6934 127.563 2.63672Q133.496-5.41992 136.792-15.0635Q140.088-24.707 140.088-35.2539Q140.088-45.8496 136.792-55.4688Q133.496-65.0879 127.539-73.1445Q121.582-81.2012 113.525-87.1582Q105.469-93.1152 95.8252-96.3867Q86.1816-99.6582 75.6348-99.6582Q65.0391-99.6582 55.4199-96.3867Q45.8008-93.1152 37.7441-87.1582Q29.6875-81.2012 23.7549-73.1445Q17.8223-65.0879 14.5508-55.4688Q11.2793-45.8496 11.2793-35.2539Q11.2793-24.707 14.5508-15.0635Q17.8223-5.41992 23.7549 2.63672Q29.6875 10.6934 37.7686 16.626Q45.8496 22.5586 55.4688 25.8545Q65.0879 29.1504 75.6836 29.1504Z"/>
   <path class="multicolor-1:white hierarchical-1:primary SFSymbolsPreviewFFFFFF" d="M75.6836 19.7754Q68.3105 19.7754 61.1084 17.7979Q53.9062 15.8203 47.583 12.1338Q41.2598 8.44727 36.4746 3.32031Q40.0391-2.14844 45.9473-6.05469Q51.8555-9.96094 59.4482-12.0605Q67.041-14.1602 75.6836-14.1602Q84.2285-14.1602 91.7969-12.085Q99.3652-10.0098 105.322-6.10352Q111.279-2.19727 114.844 3.32031Q110.156 8.44727 103.809 12.1338Q97.4609 15.8203 90.2588 17.7979Q83.0566 19.7754 75.6836 19.7754ZM75.6836-25Q69.5312-25.0488 64.5996-28.1982Q59.668-31.3477 56.7871-36.7676Q53.9062-42.1875 53.9062-48.9746Q53.8574-55.3711 56.7627-60.6934Q59.668-66.0156 64.624-69.2383Q69.5801-72.4609 75.6836-72.4609Q81.7383-72.4609 86.6943-69.2383Q91.6504-66.0156 94.5557-60.6934Q97.4609-55.3711 97.4609-48.9746Q97.4609-42.1875 94.5801-36.7432Q91.6992-31.2988 86.7676-28.125Q81.8359-24.9512 75.6836-25Z"/>
  </g>
  <g id="Regular-L" transform="matrix(1 0 0 1 1374.97 1556)">
   <path class="multicolor-0:tintColor hierarchical-0:tertiary SFSymbolsPreview007AFF" d="M74.8535 28.3203Q85.3027 28.3203 94.7998 25.0732Q104.297 21.8262 112.256 15.9668Q120.215 10.1074 126.099 2.14844Q131.982-5.81055 135.229-15.332Q138.477-24.8535 138.477-35.2539Q138.477-45.7031 135.229-55.2002Q131.982-64.6973 126.099-72.6562Q120.215-80.6152 112.256-86.499Q104.297-92.3828 94.7754-95.6299Q85.2539-98.877 74.8047-98.877Q64.3555-98.877 54.8584-95.6299Q45.3613-92.3828 37.4268-86.499Q29.4922-80.6152 23.6084-72.6562Q17.7246-64.6973 14.502-55.2002Q11.2793-45.7031 11.2793-35.2539Q11.2793-24.8535 14.5264-15.332Q17.7734-5.81055 23.6328 2.14844Q29.4922 10.1074 37.4512 15.9668Q45.4102 21.8262 54.9072 25.0732Q64.4043 28.3203 74.8535 28.3203Z"/>
   <path class="multicolor-1:white hierarchical-1:primary SFSymbolsPreviewFFFFFF" d="M74.8535 20.166Q67.2363 20.166 60.0098 18.1396Q52.7832 16.1133 46.4844 12.3779Q40.1855 8.64258 35.4004 3.51562Q38.8184-1.9043 44.7754-5.83496Q50.7324-9.76562 58.4473-11.8896Q66.1621-14.0137 74.8535-14.0137Q83.4473-14.0137 91.1377-11.9141Q98.8281-9.81445 104.834-5.88379Q110.84-1.95312 114.307 3.51562Q109.521 8.64258 103.223 12.3779Q96.9238 16.1133 89.6973 18.1396Q82.4707 20.166 74.8535 20.166ZM74.8535-24.707Q68.7988-24.7559 63.916-27.8809Q59.0332-31.0059 56.1768-36.3525Q53.3203-41.6992 53.3203-48.4863Q53.2715-54.834 56.1523-60.1074Q59.0332-65.3809 63.9404-68.5547Q68.8477-71.7285 74.8535-71.7285Q80.8594-71.7285 85.7422-68.5547Q90.625-65.3809 93.5059-60.1074Q96.3867-54.834 96.3867-48.4863Q96.3867-41.6992 93.5303-36.3281Q90.6738-30.957 85.791-27.8076Q80.9082-24.6582 74.8535-24.707Z"/>
  </g>
  <g id="Light-L" transform="matrix(1 0 0 1 1079.18 1556)">
   <path class="multicolor-0:tintColor hierarchical-0:tertiary SFSymbolsPreview007AFF" d="M73.9258 27.3926Q84.2285 27.3926 93.6035 24.1943Q102.979 20.9961 110.815 15.2344Q118.652 9.47266 124.438 1.63574Q130.225-6.20117 133.423-15.5762Q136.621-24.9512 136.621-35.2539Q136.621-45.5566 133.423-54.9316Q130.225-64.3066 124.438-72.1436Q118.652-79.9805 110.815-85.7666Q102.979-91.5527 93.6035-94.751Q84.2285-97.9492 73.877-97.9492Q63.5742-97.9492 54.2236-94.751Q44.873-91.5527 37.0361-85.7666Q29.1992-79.9805 23.4131-72.1436Q17.627-64.3066 14.4531-54.9316Q11.2793-45.5566 11.2793-35.2539Q11.2793-24.9512 14.4775-15.5762Q17.6758-6.20117 23.4375 1.63574Q29.1992 9.47266 37.0361 15.2344Q44.873 20.9961 54.248 24.1943Q63.623 27.3926 73.9258 27.3926Z"/>
   <path class="multicolor-1:white hierarchical-1:primary SFSymbolsPreviewFFFFFF" d="M73.9258 21.1426Q65.8203 21.1426 58.3496 18.9697Q50.8789 16.7969 44.5557 12.915Q38.2324 9.0332 33.4961 3.90625Q36.9629-1.61133 43.0908-5.71289Q49.2188-9.81445 57.1533-12.0361Q65.0879-14.2578 73.9258-14.2578Q82.7148-14.2578 90.6494-12.0361Q98.584-9.81445 104.736-5.7373Q110.889-1.66016 114.355 3.90625Q109.668 9.0332 103.32 12.915Q96.9727 16.7969 89.5264 18.9697Q82.0801 21.1426 73.9258 21.1426ZM73.9258-25.0488Q67.8711-25.0977 63.0371-28.2227Q58.2031-31.3477 55.3711-36.6943Q52.5391-42.041 52.5391-48.7793Q52.4902-55.0781 55.3467-60.3516Q58.2031-65.625 63.0859-68.7988Q67.9688-71.9727 73.9258-71.9727Q79.9316-71.9727 84.79-68.7988Q89.6484-65.625 92.5049-60.3516Q95.3613-55.0781 95.3613-48.7793Q95.3613-42.041 92.5293-36.6699Q89.6973-31.2988 84.8389-28.1494Q79.9805-25 73.9258-25.0488Z"/>
  </g>
  <g id="Thin-L" transform="matrix(1 0 0 1 783.689 1556)">
   <path class="multicolor-0:tintColor hierarchical-0:tertiary SFSymbolsPreview007AFF" d="M72.7051 26.1719Q82.8613 26.1719 92.041 23.0469Q101.221 19.9219 108.911 14.2822Q116.602 8.64258 122.266 0.952148Q127.93-6.73828 131.055-15.9424Q134.18-25.1465 134.18-35.2539Q134.18-45.4102 131.055-54.5898Q127.93-63.7695 122.29-71.46Q116.65-79.1504 108.936-84.8145Q101.221-90.4785 92.0166-93.6035Q82.8125-96.7285 72.7051-96.7285Q62.5488-96.7285 53.3691-93.6035Q44.1895-90.4785 36.499-84.8145Q28.8086-79.1504 23.1689-71.46Q17.5293-63.7695 14.4043-54.5898Q11.2793-45.4102 11.2793-35.2539Q11.2793-25.1465 14.4043-15.9424Q17.5293-6.73828 23.1689 0.952148Q28.8086 8.64258 36.5234 14.2822Q44.2383 19.9219 53.418 23.0469Q62.5977 26.1719 72.7051 26.1719Z"/>
   <path class="multicolor-1:white hierarchical-1:primary SFSymbolsPreviewFFFFFF" d="M72.6562 22.4609Q63.916 22.4609 56.1279 20.0684Q48.3398 17.6758 41.9678 13.5986Q35.5957 9.52148 30.957 4.44336Q34.4727-1.26953 40.8447-5.54199Q47.2168-9.81445 55.4443-12.207Q63.6719-14.5996 72.6562-14.5996Q81.7383-14.5996 89.9414-12.2314Q98.1445-9.86328 104.517-5.56641Q110.889-1.26953 114.404 4.44336Q109.814 9.52148 103.418 13.5986Q97.0215 17.6758 89.2578 20.0684Q81.4941 22.4609 72.6562 22.4609ZM72.6562-25.4883Q66.6504-25.4883 61.8408-28.6377Q57.0312-31.7871 54.2236-37.1338Q51.416-42.4805 51.416-49.1699Q51.3672-55.4199 54.2236-60.6934Q57.0801-65.9668 61.9141-69.1406Q66.748-72.3145 72.6562-72.3145Q78.6133-72.3145 83.4473-69.1406Q88.2812-65.9668 91.1133-60.6934Q93.9453-55.4199 93.9453-49.1699Q93.9453-42.4805 91.1377-37.1338Q88.3301-31.7871 83.5205-28.6377Q78.7109-25.4883 72.6562-25.4883Z"/>
  </g>
  <g id="Ultralight-L" transform="matrix(1 0 0 1 487.603 1556)">
   <path class="multicolor-0:tintColor hierarchical-0:tertiary SFSymbolsPreview007AFF" d="M72.0703 25.5371Q82.1289 25.5371 91.2354 22.4609Q100.342 19.3848 107.935 13.7939Q115.527 8.20312 121.143 0.585938Q126.758-7.03125 129.858-16.1133Q132.959-25.1953 132.959-35.2539Q132.959-45.3125 129.858-54.4189Q126.758-63.5254 121.167-71.1182Q115.576-78.7109 107.959-84.3262Q100.342-89.9414 91.2354-93.0176Q82.1289-96.0938 72.0703-96.0938Q62.0605-96.0938 52.9541-93.0176Q43.8477-89.9414 36.2305-84.3262Q28.6133-78.7109 23.0225-71.1182Q17.4316-63.5254 14.3555-54.4189Q11.2793-45.3125 11.2793-35.2539Q11.2793-25.1953 14.3555-16.1133Q17.4316-7.03125 23.0225 0.585938Q28.6133 8.20312 36.2305 13.7939Q43.8477 19.3848 52.9541 22.4609Q62.0605 25.5371 72.0703 25.5371Z"/>
   <path class="multicolor-1:white hierarchical-1:primary SFSymbolsPreviewFFFFFF" d="M72.0703 23.0957Q62.9395 23.0957 55.0049 20.6055Q47.0703 18.1152 40.6494 13.9404Q34.2285 9.76562 29.6875 4.73633Q33.2031-1.07422 39.6973-5.46875Q46.1914-9.86328 54.5654-12.3291Q62.9395-14.7949 72.0703-14.7949Q81.25-14.7949 89.624-12.3291Q97.998-9.86328 104.468-5.46875Q110.938-1.07422 114.453 4.73633Q109.912 9.76562 103.491 13.9404Q97.0703 18.1152 89.1357 20.6055Q81.2012 23.0957 72.0703 23.0957ZM72.0703-25.6836Q66.0156-25.7324 61.2305-28.8574Q56.4453-31.9824 53.6621-37.3291Q50.8789-42.6758 50.8789-49.3652Q50.8301-55.6152 53.6621-60.8887Q56.4941-66.1621 61.3281-69.3359Q66.1621-72.5098 72.0703-72.5098Q77.9785-72.5098 82.7881-69.3359Q87.5977-66.1621 90.4297-60.8887Q93.2617-55.6152 93.2617-49.3652Q93.2617-42.6758 90.4785-37.3291Q87.6953-31.9824 82.9102-28.8574Q78.125-25.7324 72.0703-25.6836Z"/>
  </g>
  <g id="Black-M" transform="matrix(1 0 0 1 2871.32 1126)">
   <path class="multicolor-0:tintColor hierarchical-0:tertiary SFSymbolsPreview007AFF" d="M62.0605 18.1152Q73.0957 18.1152 82.7637 13.9648Q92.4316 9.81445 99.7559 2.46582Q107.08-4.88281 111.255-14.5264Q115.43-24.1699 115.43-35.2051Q115.43-46.2402 111.255-55.8838Q107.08-65.5273 99.7559-72.876Q92.4316-80.2246 82.7637-84.375Q73.0957-88.5254 62.0605-88.5254Q51.0742-88.5254 41.4062-84.375Q31.7383-80.2246 24.3896-72.876Q17.041-65.5273 12.8906-55.8838Q8.74023-46.2402 8.74023-35.2051Q8.74023-24.1699 12.8906-14.5264Q17.041-4.88281 24.3896 2.46582Q31.7383 9.81445 41.4062 13.9648Q51.0742 18.1152 62.0605 18.1152Z"/>
   <path class="multicolor-1:white hierarchical-1:primary SFSymbolsPreviewFFFFFF" d="M62.0605 5.85938Q57.2266 5.85938 51.709 4.49219Q46.1914 3.125 41.1133 0.463867Q36.0352-2.19727 32.6172-6.10352Q36.084-10.5469 40.4785-13.5742Q44.873-16.6016 50.2686-18.1396Q55.6641-19.6777 62.0605-19.6777Q68.457-19.6777 73.8281-18.1641Q79.1992-16.6504 83.6426-13.6475Q88.0859-10.6445 91.5527-6.10352Q88.1348-2.19727 83.0566 0.463867Q77.9785 3.125 72.4365 4.49219Q66.8945 5.85938 62.0605 5.85938ZM62.0605-28.7109Q56.9336-28.7109 52.8564-31.3477Q48.7793-33.9844 46.4111-38.4277Q44.043-42.8711 44.043-48.291Q44.043-53.4668 46.4355-57.8613Q48.8281-62.2559 52.9297-64.917Q57.0312-67.5781 62.0605-67.5781Q67.1387-67.5781 71.2158-64.917Q75.293-62.2559 77.71-57.8613Q80.127-53.4668 80.127-48.291Q80.127-42.8711 77.7588-38.4277Q75.3906-33.9844 71.3135-31.3477Q67.2363-28.7109 62.0605-28.7109Z"/>
  </g>
  <g id="Heavy-M" transform="matrix(1 0 0 1 2575.44 1126)">
   <path class="multicolor-0:tintColor hierarchical-0:tertiary SFSymbolsPreview007AFF" d="M61.2305 17.2852Q72.0703 17.2852 81.5918 13.1836Q91.1133 9.08203 98.3154 1.85547Q105.518-5.37109 109.644-14.8682Q113.77-24.3652 113.77-35.2051Q113.77-46.0449 109.644-55.542Q105.518-65.0391 98.3154-72.29Q91.1133-79.541 81.5918-83.6182Q72.0703-87.6953 61.2305-87.6953Q50.4395-87.6953 40.918-83.6182Q31.3965-79.541 24.1699-72.29Q16.9434-65.0391 12.8418-55.542Q8.74023-46.0449 8.74023-35.2051Q8.74023-24.3652 12.8418-14.8682Q16.9434-5.37109 24.1699 1.85547Q31.3965 9.08203 40.918 13.1836Q50.4395 17.2852 61.2305 17.2852Z"/>
   <path class="multicolor-1:white hierarchical-1:primary SFSymbolsPreviewFFFFFF" d="M61.2305 6.15234Q56.2012 6.15234 50.708 4.76074Q45.2148 3.36914 40.1855 0.683594Q35.1562-2.00195 31.6406-5.95703Q34.9121-10.3027 39.3311-13.3301Q43.75-16.3574 49.2676-17.8955Q54.7852-19.4336 61.2305-19.4336Q67.6758-19.4336 73.1445-17.9199Q78.6133-16.4062 83.0811-13.4033Q87.5488-10.4004 90.8203-5.95703Q87.3535-2.00195 82.3242 0.683594Q77.2949 3.36914 71.7529 4.76074Q66.2109 6.15234 61.2305 6.15234ZM61.2305-28.2715Q56.2012-28.3203 52.1973-30.8838Q48.1934-33.4473 45.8496-37.8418Q43.5059-42.2363 43.5059-47.6074Q43.5059-52.6855 45.8496-57.0312Q48.1934-61.377 52.2461-63.9893Q56.2988-66.6016 61.2305-66.6016Q66.2109-66.6016 70.2148-63.9893Q74.2188-61.377 76.6113-57.0312Q79.0039-52.6855 79.0039-47.6074Q79.0039-42.2363 76.6602-37.8418Q74.3164-33.4473 70.3125-30.8594Q66.3086-28.2715 61.2305-28.2715Z"/>
  </g>
  <g id="Bold-M" transform="matrix(1 0 0 1 2279.66 1126)">
   <path class="multicolor-0:tintColor hierarchical-0:tertiary SFSymbolsPreview007AFF" d="M60.3027 16.3574Q70.9473 16.3574 80.2734 12.3291Q89.5996 8.30078 96.7041 1.17188Q103.809-5.95703 107.861-15.2832Q111.914-24.6094 111.914-35.2539Q111.914-45.8496 107.861-55.1758Q103.809-64.502 96.7041-71.6309Q89.5996-78.7598 80.249-82.7881Q70.8984-86.8164 60.3027-86.8164Q49.707-86.8164 40.3564-82.7881Q31.0059-78.7598 23.9014-71.6309Q16.7969-64.502 12.7686-55.1758Q8.74023-45.8496 8.74023-35.2539Q8.74023-24.6094 12.7686-15.2832Q16.7969-5.95703 23.9258 1.17188Q31.0547 8.30078 40.3809 12.3291Q49.707 16.3574 60.3027 16.3574Z"/>
   <path class="multicolor-1:white hierarchical-1:primary SFSymbolsPreviewFFFFFF" d="M60.3027 6.49414Q55.0781 6.49414 49.585 5.07812Q44.0918 3.66211 39.1357 0.90332Q34.1797-1.85547 30.5664-5.76172Q33.6426-10.0586 38.0859-13.0615Q42.5293-16.0645 48.1689-17.6025Q53.8086-19.1406 60.3027-19.1406Q66.7969-19.1406 72.3877-17.627Q77.9785-16.1133 82.4951-13.1348Q87.0117-10.1562 90.0391-5.76172Q86.4746-1.85547 81.5186 0.90332Q76.5625 3.66211 71.0449 5.07812Q65.5273 6.49414 60.3027 6.49414ZM60.3027-27.832Q55.3711-27.832 51.4404-30.3711Q47.5098-32.9102 45.2148-37.207Q42.9199-41.5039 42.9199-46.8262Q42.9199-51.8555 45.2393-56.1035Q47.5586-60.3516 51.5137-62.915Q55.4688-65.4785 60.3027-65.4785Q65.1855-65.4785 69.1162-62.915Q73.0469-60.3516 75.3906-56.1035Q77.7344-51.8555 77.7344-46.8262Q77.7344-41.5039 75.415-37.1826Q73.0957-32.8613 69.165-30.3223Q65.2344-27.7832 60.3027-27.832Z"/>
  </g>
  <g id="Semibold-M" transform="matrix(1 0 0 1 1983.6 1126)">
   <path class="multicolor-0:tintColor hierarchical-0:tertiary SFSymbolsPreview007AFF" d="M59.668 15.6738Q70.1172 15.6738 79.3457 11.6943Q88.5742 7.71484 95.6055 0.683594Q102.637-6.34766 106.616-15.5518Q110.596-24.7559 110.596-35.2539Q110.596-45.7031 106.616-54.9072Q102.637-64.1113 95.6055-71.1426Q88.5742-78.1738 79.3457-82.1777Q70.1172-86.1816 59.6191-86.1816Q49.1699-86.1816 39.9658-82.1777Q30.7617-78.1738 23.7305-71.1426Q16.6992-64.1113 12.7197-54.9072Q8.74023-45.7031 8.74023-35.2539Q8.74023-24.7559 12.7197-15.5518Q16.6992-6.34766 23.7305 0.683594Q30.7617 7.71484 39.9902 11.6943Q49.2188 15.6738 59.668 15.6738Z"/>
   <path class="multicolor-1:white hierarchical-1:primary SFSymbolsPreviewFFFFFF" d="M59.6191 6.73828Q54.2969 6.73828 48.8037 5.27344Q43.3105 3.80859 38.3789 1.0498Q33.4473-1.70898 29.7852-5.61523Q32.7148-9.86328 37.1826-12.8418Q41.6504-15.8203 47.3633-17.3828Q53.0762-18.9453 59.6191-18.9453Q66.1621-18.9453 71.8262-17.4072Q77.4902-15.8691 82.0312-12.915Q86.5723-9.96094 89.4531-5.61523Q85.8398-1.70898 80.9082 1.0498Q75.9766 3.80859 70.4834 5.27344Q64.9902 6.73828 59.6191 6.73828ZM59.6191-27.4902Q54.7852-27.4902 50.9033-29.9805Q47.0215-32.4707 44.751-36.7188Q42.4805-40.9668 42.4805-46.2402Q42.4805-51.2695 44.751-55.4688Q47.0215-59.668 50.9277-62.1826Q54.834-64.6973 59.6191-64.6973Q64.4043-64.6973 68.3105-62.1826Q72.2168-59.668 74.5117-55.4688Q76.8066-51.2695 76.8066-46.2402Q76.8066-40.9668 74.5117-36.6943Q72.2168-32.4219 68.3594-29.9316Q64.502-27.4414 59.6191-27.4902Z"/>
  </g>
  <g id="Medium-M" transform="matrix(1 0 0 1 1687.37 1126)">
   <path class="multicolor-0:tintColor hierarchical-0:tertiary SFSymbolsPreview007AFF" d="M59.1797 15.1855Q69.5312 15.1855 78.6621 11.2305Q87.793 7.27539 94.751 0.317383Q101.709-6.64062 105.664-15.7715Q109.619-24.9023 109.619-35.2539Q109.619-45.6055 105.664-54.7363Q101.709-63.8672 94.751-70.8252Q87.793-77.7832 78.6377-81.7383Q69.4824-85.6934 59.1309-85.6934Q48.7793-85.6934 39.6484-81.7383Q30.5176-77.7832 23.584-70.8252Q16.6504-63.8672 12.6953-54.7363Q8.74023-45.6055 8.74023-35.2539Q8.74023-24.9023 12.6953-15.7715Q16.6504-6.64062 23.6084 0.317383Q30.5664 7.27539 39.6973 11.2305Q48.8281 15.1855 59.1797 15.1855Z"/>
   <path class="multicolor-1:white hierarchical-1:primary SFSymbolsPreviewFFFFFF" d="M59.1797 6.88477Q53.6621 6.88477 48.1934 5.41992Q42.7246 3.95508 37.8174 1.17188Q32.9102-1.61133 29.248-5.56641Q32.0312-9.76562 36.5234-12.7197Q41.0156-15.6738 46.7773-17.2363Q52.5391-18.7988 59.1797-18.7988Q65.6738-18.7988 71.4355-17.2607Q77.1973-15.7227 81.7383-12.7686Q86.2793-9.81445 89.0625-5.56641Q85.3516-1.61133 80.4688 1.17188Q75.5859 3.95508 70.0928 5.41992Q64.5996 6.88477 59.1797 6.88477ZM59.1797-27.2461Q54.3457-27.2461 50.5127-29.7119Q46.6797-32.1777 44.4336-36.377Q42.1875-40.5762 42.1875-45.8496Q42.1387-50.8301 44.4092-54.9805Q46.6797-59.1309 50.5371-61.6211Q54.3945-64.1113 59.1797-64.1113Q63.8672-64.1113 67.7246-61.6211Q71.582-59.1309 73.8525-54.9805Q76.123-50.8301 76.123-45.8496Q76.123-40.5762 73.877-36.3281Q71.6309-32.0801 67.7734-29.6387Q63.916-27.1973 59.1797-27.2461Z"/>
  </g>
  <g id="Regular-M" transform="matrix(1 0 0 1 1391.3 1126)">
   <path class="multicolor-0:tintColor hierarchical-0:tertiary SFSymbolsPreview007AFF" d="M58.5449 14.5508Q68.75 14.5508 77.7588 10.6445Q86.7676 6.73828 93.6523-0.146484Q100.537-7.03125 104.443-16.04Q108.35-25.0488 108.35-35.2539Q108.35-45.459 104.443-54.4678Q100.537-63.4766 93.6523-70.3613Q86.7676-77.2461 77.7344-81.1523Q68.7012-85.0586 58.4961-85.0586Q48.291-85.0586 39.2822-81.1523Q30.2734-77.2461 23.4131-70.3613Q16.5527-63.4766 12.6465-54.4678Q8.74023-45.459 8.74023-35.2539Q8.74023-25.0488 12.6465-16.04Q16.5527-7.03125 23.4375-0.146484Q30.3223 6.73828 39.3311 10.6445Q48.3398 14.5508 58.5449 14.5508Z"/>
   <path class="multicolor-1:white hierarchical-1:primary SFSymbolsPreviewFFFFFF" d="M58.5449 7.12891Q52.9297 7.12891 47.4609 5.63965Q41.9922 4.15039 37.1338 1.34277Q32.2754-1.46484 28.5156-5.41992Q31.1523-9.57031 35.6689-12.5244Q40.1855-15.4785 46.0449-17.041Q51.9043-18.6035 58.5449-18.6035Q65.0879-18.6035 70.9229-17.0654Q76.7578-15.5273 81.3232-12.5732Q85.8887-9.61914 88.5254-5.41992Q84.7656-1.46484 79.9316 1.34277Q75.0977 4.15039 69.6045 5.63965Q64.1113 7.12891 58.5449 7.12891ZM58.5449-26.9043Q53.8086-26.9531 50.0244-29.3701Q46.2402-31.7871 44.0186-35.9375Q41.7969-40.0879 41.7969-45.3125Q41.748-50.2441 43.9941-54.3457Q46.2402-58.4473 50.0488-60.9131Q53.8574-63.3789 58.5449-63.3789Q63.1836-63.3789 66.9922-60.9131Q70.8008-58.4473 73.0469-54.3457Q75.293-50.2441 75.293-45.3125Q75.293-40.0879 73.0469-35.8887Q70.8008-31.6895 67.0166-29.2725Q63.2324-26.8555 58.5449-26.9043Z"/>
  </g>
  <g id="Light-M" transform="matrix(1 0 0 1 1095.41 1126)">
   <path class="multicolor-0:tintColor hierarchical-0:tertiary SFSymbolsPreview007AFF" d="M57.7148 13.7207Q67.7734 13.7207 76.6357 9.8877Q85.498 6.05469 92.2607-0.708008Q99.0234-7.4707 102.856-16.333Q106.689-25.1953 106.689-35.2539Q106.689-45.3125 102.856-54.1748Q99.0234-63.0371 92.2607-69.7998Q85.498-76.5625 76.6113-80.3955Q67.7246-84.2285 57.666-84.2285Q47.6074-84.2285 38.7451-80.3955Q29.8828-76.5625 23.1445-69.7998Q16.4062-63.0371 12.5732-54.1748Q8.74023-45.3125 8.74023-35.2539Q8.74023-25.1953 12.5732-16.333Q16.4062-7.4707 23.1689-0.708008Q29.9316 6.05469 38.7939 9.8877Q47.6562 13.7207 57.7148 13.7207Z"/>
   <path class="multicolor-1:white hierarchical-1:primary SFSymbolsPreviewFFFFFF" d="M57.7148 8.00781Q51.6602 8.00781 45.9717 6.37207Q40.2832 4.73633 35.376 1.80664Q30.4688-1.12305 26.8066-5.07812Q29.4922-9.32617 34.1553-12.4268Q38.8184-15.5273 44.873-17.1875Q50.9277-18.8477 57.7148-18.8477Q64.4043-18.8477 70.459-17.1875Q76.5137-15.5273 81.2256-12.4268Q85.9375-9.32617 88.5742-5.07812Q84.8633-1.12305 80.0049 1.80664Q75.1465 4.73633 69.458 6.37207Q63.7695 8.00781 57.7148 8.00781ZM57.7148-27.1973Q52.9785-27.2461 49.2188-29.6631Q45.459-32.0801 43.2617-36.2305Q41.0645-40.3809 41.0645-45.6055Q41.0156-50.4883 43.2373-54.5898Q45.459-58.6914 49.2676-61.1572Q53.0762-63.623 57.7148-63.623Q62.3047-63.623 66.0889-61.1572Q69.873-58.6914 72.1191-54.5898Q74.3652-50.4883 74.3652-45.6055Q74.3652-40.3809 72.1436-36.2061Q69.9219-32.0312 66.1621-29.6143Q62.4023-27.1973 57.7148-27.1973Z"/>
  </g>
  <g id="Thin-M" transform="matrix(1 0 0 1 799.793 1126)">
   <path class="multicolor-0:tintColor hierarchical-0:tertiary SFSymbolsPreview007AFF" d="M56.5918 12.5977Q66.5039 12.5977 75.1709 8.88672Q83.8379 5.17578 90.4297-1.44043Q97.0215-8.05664 100.781-16.7236Q104.541-25.3906 104.541-35.2539Q104.541-45.1172 100.781-53.7842Q97.0215-62.4512 90.4297-69.0674Q83.8379-75.6836 75.1709-79.3945Q66.5039-83.1055 56.5918-83.1055Q46.7285-83.1055 38.0615-79.3945Q29.3945-75.6836 22.8271-69.0674Q16.2598-62.4512 12.5-53.7842Q8.74023-45.1172 8.74023-35.2539Q8.74023-25.3906 12.4756-16.7236Q16.2109-8.05664 22.8027-1.44043Q29.3945 5.17578 38.0859 8.88672Q46.7773 12.5977 56.5918 12.5977Z"/>
   <path class="multicolor-1:white hierarchical-1:primary SFSymbolsPreviewFFFFFF" d="M56.5918 9.17969Q49.9512 9.17969 43.9941 7.37305Q38.0371 5.56641 33.0811 2.46582Q28.125-0.634766 24.5605-4.58984Q27.2461-8.98438 32.1289-12.2559Q37.0117-15.5273 43.335-17.3584Q49.6582-19.1895 56.5918-19.1895Q63.5254-19.1895 69.8486-17.3828Q76.1719-15.5762 81.0547-12.2803Q85.9375-8.98438 88.623-4.58984Q85.0586-0.634766 80.1025 2.46582Q75.1465 5.56641 69.2139 7.37305Q63.2812 9.17969 56.5918 9.17969ZM56.5918-27.5879Q51.9043-27.6367 48.1689-30.0537Q44.4336-32.4707 42.2607-36.6211Q40.0879-40.7715 40.0879-45.9473Q40.0391-50.8301 42.2607-54.9072Q44.4824-58.9844 48.2422-61.4502Q52.002-63.916 56.5918-63.916Q61.1816-63.916 64.9414-61.4502Q68.7012-58.9844 70.8984-54.9072Q73.0957-50.8301 73.0957-45.9473Q73.0957-40.7715 70.9229-36.5967Q68.75-32.4219 65.0146-30.0049Q61.2793-27.5879 56.5918-27.5879Z"/>
  </g>
  <g id="Ultralight-M" transform="matrix(1 0 0 1 503.641 1126)">
   <path class="multicolor-0:tintColor hierarchical-0:tertiary SFSymbolsPreview007AFF" d="M56.0547 12.0605Q65.8203 12.0605 74.3896 8.37402Q82.959 4.6875 89.4775-1.83105Q95.9961-8.34961 99.707-16.9189Q103.418-25.4883 103.418-35.2539Q103.418-45.0195 99.707-53.5889Q95.9961-62.1582 89.4775-68.6768Q82.959-75.1953 74.3896-78.8818Q65.8203-82.5684 56.0547-82.5684Q46.2891-82.5684 37.7197-78.8818Q29.1504-75.1953 22.6562-68.6768Q16.1621-62.1582 12.4512-53.5889Q8.74023-45.0195 8.74023-35.2539Q8.74023-25.4883 12.4268-16.9189Q16.1133-8.34961 22.6318-1.83105Q29.1504 4.6875 37.7197 8.37402Q46.2891 12.0605 56.0547 12.0605Z"/>
   <path class="multicolor-1:white hierarchical-1:primary SFSymbolsPreviewFFFFFF" d="M56.0547 9.76562Q49.0723 9.76562 42.9688 7.86133Q36.8652 5.95703 31.8848 2.75879Q26.9043-0.439453 23.3887-4.3457Q26.123-8.83789 31.1035-12.207Q36.084-15.5762 42.5293-17.4561Q48.9746-19.3359 56.0547-19.3359Q63.0859-19.3359 69.5312-17.4561Q75.9766-15.5762 80.9814-12.1826Q85.9863-8.78906 88.6719-4.3457Q85.1074-0.439453 80.1514 2.75879Q75.1953 5.95703 69.1162 7.86133Q63.0371 9.76562 56.0547 9.76562ZM56.0547-27.832Q51.3672-27.832 47.6562-30.249Q43.9453-32.666 41.748-36.8164Q39.5508-40.9668 39.5508-46.1426Q39.5508-50.9766 41.748-55.0537Q43.9453-59.1309 47.7051-61.5967Q51.4648-64.0625 56.0547-64.0625Q60.5957-64.0625 64.3311-61.5967Q68.0664-59.1309 70.2637-55.0537Q72.4609-50.9766 72.4609-46.1426Q72.4609-40.9668 70.3125-36.8164Q68.1641-32.666 64.4287-30.249Q60.6934-27.832 56.0547-27.832Z"/>
  </g>
  <g id="Black-S" transform="matrix(1 0 0 1 2884.57 696)">
   <path class="multicolor-0:tintColor hierarchical-0:tertiary SFSymbolsPreview007AFF" d="M48.8281 6.78711Q57.5195 6.78711 65.1123 3.51562Q72.7051 0.244141 78.4912-5.54199Q84.2773-11.3281 87.5488-18.9209Q90.8203-26.5137 90.8203-35.2051Q90.8203-43.8965 87.5488-51.4893Q84.2773-59.082 78.4912-64.8682Q72.7051-70.6543 65.1123-73.9258Q57.5195-77.1973 48.8281-77.1973Q40.1367-77.1973 32.5439-73.9258Q24.9512-70.6543 19.165-64.8682Q13.3789-59.082 10.1074-51.4893Q6.83594-43.8965 6.83594-35.2051Q6.83594-26.5137 10.1074-18.9209Q13.3789-11.3281 19.165-5.54199Q24.9512 0.244141 32.5439 3.51562Q40.1367 6.78711 48.8281 6.78711Z"/>
   <path class="multicolor-1:white hierarchical-1:primary SFSymbolsPreviewFFFFFF" d="M48.8281-3.07617Q45.0684-3.07617 40.7227-4.12598Q36.377-5.17578 32.3975-7.27539Q28.418-9.375 25.7324-12.4512Q28.5156-15.9668 31.958-18.3594Q35.4004-20.752 39.5996-21.9482Q43.7988-23.1445 48.8281-23.1445Q53.8086-23.1445 58.0078-21.9482Q62.207-20.752 65.6738-18.3838Q69.1406-16.0156 71.9238-12.4512Q69.2871-9.375 65.2832-7.27539Q61.2793-5.17578 56.9336-4.12598Q52.5879-3.07617 48.8281-3.07617ZM48.8281-30.2734Q44.7754-30.2734 41.5527-32.373Q38.3301-34.4727 36.4746-37.9639Q34.6191-41.4551 34.6191-45.7031Q34.6191-49.7559 36.499-53.2227Q38.3789-56.6895 41.6016-58.7891Q44.8242-60.8887 48.8281-60.8887Q52.832-60.8887 56.0303-58.7891Q59.2285-56.6895 61.1328-53.2227Q63.0371-49.7559 63.0371-45.7031Q63.0371-41.4551 61.1816-37.9639Q59.3262-34.4727 56.1035-32.373Q52.8809-30.2734 48.8281-30.2734Z"/>
  </g>
  <g id="Heavy-S" transform="matrix(1 0 0 1 2588.47 696)">
   <path class="multicolor-0:tintColor hierarchical-0:tertiary SFSymbolsPreview007AFF" d="M48.1934 6.15234Q56.7871 6.15234 64.2578 2.92969Q71.7285-0.292969 77.4414-6.00586Q83.1543-11.7188 86.377-19.1895Q89.5996-26.6602 89.5996-35.2051Q89.5996-43.75 86.377-51.2451Q83.1543-58.7402 77.4414-64.4531Q71.7285-70.166 64.2334-73.3887Q56.7383-76.6113 48.1934-76.6113Q39.6484-76.6113 32.1777-73.3887Q24.707-70.166 18.9941-64.4531Q13.2812-58.7402 10.0586-51.2451Q6.83594-43.75 6.83594-35.2051Q6.83594-26.6602 10.0586-19.1895Q13.2812-11.7188 18.9941-6.00586Q24.707-0.292969 32.2021 2.92969Q39.6973 6.15234 48.1934 6.15234Z"/>
   <path class="multicolor-1:white hierarchical-1:primary SFSymbolsPreviewFFFFFF" d="M48.2422-2.92969Q44.3848-2.92969 40.0635-3.97949Q35.7422-5.0293 31.8115-7.15332Q27.8809-9.27734 25.1465-12.3535Q27.7344-15.7715 31.1768-18.1396Q34.6191-20.5078 38.8916-21.7041Q43.1641-22.9004 48.2422-22.9004Q53.2227-22.9004 57.4951-21.7041Q61.7676-20.5078 65.2344-18.1641Q68.7012-15.8203 71.3379-12.3535Q68.6035-9.27734 64.6484-7.15332Q60.6934-5.0293 56.3965-3.97949Q52.0996-2.92969 48.2422-2.92969ZM48.2422-29.8828Q44.2383-29.8828 41.0889-31.9336Q37.9395-33.9844 36.1084-37.4023Q34.2773-40.8203 34.2773-45.0684Q34.2773-49.0723 36.1328-52.4902Q37.9883-55.9082 41.1377-57.959Q44.2871-60.0098 48.2422-60.0098Q52.1484-60.0098 55.2979-57.959Q58.4473-55.9082 60.3271-52.4902Q62.207-49.0723 62.207-45.0684Q62.207-40.8203 60.376-37.4023Q58.5449-33.9844 55.3711-31.9336Q52.1973-29.8828 48.2422-29.8828Z"/>
  </g>
  <g id="Bold-S" transform="matrix(1 0 0 1 2292.43 696)">
   <path class="multicolor-0:tintColor hierarchical-0:tertiary SFSymbolsPreview007AFF" d="M47.5586 5.46875Q55.957 5.46875 63.3057 2.29492Q70.6543-0.878906 76.2695-6.51855Q81.8848-12.1582 85.083-19.5068Q88.2812-26.8555 88.2812-35.2539Q88.2812-43.6035 85.083-50.9766Q81.8848-58.3496 76.2695-63.9648Q70.6543-69.5801 63.2812-72.7539Q55.9082-75.9277 47.5098-75.9277Q39.1602-75.9277 31.7871-72.7539Q24.4141-69.5801 18.8232-63.9648Q13.2324-58.3496 10.0342-50.9766Q6.83594-43.6035 6.83594-35.2539Q6.83594-26.8555 10.0342-19.5068Q13.2324-12.1582 18.8477-6.51855Q24.4629-0.878906 31.8115 2.29492Q39.1602 5.46875 47.5586 5.46875Z"/>
   <path class="multicolor-1:white hierarchical-1:primary SFSymbolsPreviewFFFFFF" d="M47.5586-2.7832Q43.5547-2.7832 39.3066-3.85742Q35.0586-4.93164 31.1768-7.05566Q27.2949-9.17969 24.4629-12.2559Q26.8555-15.625 30.3223-17.9443Q33.7891-20.2637 38.1348-21.46Q42.4805-22.6562 47.5586-22.6562Q52.5391-22.6562 56.8848-21.46Q61.2305-20.2637 64.7217-17.9688Q68.2129-15.6738 70.6543-12.2559Q67.8223-9.17969 63.9404-7.05566Q60.0586-4.93164 55.7861-3.85742Q51.5137-2.7832 47.5586-2.7832ZM47.5586-29.4434Q43.6523-29.4434 40.5518-31.4453Q37.4512-33.4473 35.6445-36.8164Q33.8379-40.1855 33.8379-44.3848Q33.8379-48.3398 35.6689-51.6846Q37.5-55.0293 40.6006-57.0312Q43.7012-59.0332 47.5586-59.0332Q51.3672-59.0332 54.4678-57.0312Q57.5684-55.0293 59.3994-51.6846Q61.2305-48.3398 61.2305-44.3848Q61.2305-40.1855 59.4238-36.792Q57.6172-33.3984 54.5166-31.3965Q51.416-29.3945 47.5586-29.4434Z"/>
  </g>
  <g id="Semibold-S" transform="matrix(1 0 0 1 1996.19 696)">
   <path class="multicolor-0:tintColor hierarchical-0:tertiary SFSymbolsPreview007AFF" d="M47.0703 4.98047Q55.3711 4.98047 62.6465 1.85547Q69.9219-1.26953 75.4639-6.86035Q81.0059-12.4512 84.1553-19.7266Q87.3047-27.002 87.3047-35.2539Q87.3047-43.5059 84.1553-50.7812Q81.0059-58.0566 75.4395-63.623Q69.873-69.1895 62.5977-72.3389Q55.3223-75.4883 47.0215-75.4883Q38.7695-75.4883 31.4941-72.3389Q24.2188-69.1895 18.6768-63.623Q13.1348-58.0566 9.98535-50.7812Q6.83594-43.5059 6.83594-35.2539Q6.83594-27.002 9.98535-19.7266Q13.1348-12.4512 18.7012-6.86035Q24.2676-1.26953 31.543 1.85547Q38.8184 4.98047 47.0703 4.98047Z"/>
   <path class="multicolor-1:white hierarchical-1:primary SFSymbolsPreviewFFFFFF" d="M47.0703-2.63672Q43.0176-2.63672 38.7939-3.71094Q34.5703-4.78516 30.7129-6.93359Q26.8555-9.08203 23.9746-12.207Q26.2695-15.4785 29.7363-17.7734Q33.2031-20.0684 37.5977-21.2646Q41.9922-22.4609 47.0703-22.4609Q52.0996-22.4609 56.4941-21.2646Q60.8887-20.0684 64.3799-17.7979Q67.8711-15.5273 70.166-12.207Q67.334-9.08203 63.4766-6.93359Q59.6191-4.78516 55.3711-3.71094Q51.123-2.63672 47.0703-2.63672ZM47.0703-29.1016Q43.2617-29.1504 40.21-31.1035Q37.1582-33.0566 35.376-36.377Q33.5938-39.6973 33.5938-43.8477Q33.5938-47.8027 35.376-51.0986Q37.1582-54.3945 40.21-56.3721Q43.2617-58.3496 47.0703-58.3496Q50.8789-58.3496 53.9062-56.3721Q56.9336-54.3945 58.7402-51.0986Q60.5469-47.8027 60.5469-43.8477Q60.5469-39.6973 58.7891-36.3525Q57.0312-33.0078 53.9551-31.0303Q50.8789-29.0527 47.0703-29.1016Z"/>
  </g>
  <g id="Medium-S" transform="matrix(1 0 0 1 1699.83 696)">
   <path class="multicolor-0:tintColor hierarchical-0:tertiary SFSymbolsPreview007AFF" d="M46.7285 4.63867Q54.9316 4.63867 62.1338 1.51367Q69.3359-1.61133 74.8535-7.12891Q80.3711-12.6465 83.4961-19.8486Q86.6211-27.0508 86.6211-35.2539Q86.6211-43.4082 83.4961-50.6348Q80.3711-57.8613 74.8291-63.3789Q69.2871-68.8965 62.085-71.9971Q54.8828-75.0977 46.6797-75.0977Q38.4766-75.0977 31.2744-71.9971Q24.0723-68.8965 18.5791-63.3789Q13.0859-57.8613 9.96094-50.6348Q6.83594-43.4082 6.83594-35.2539Q6.83594-27.0508 9.96094-19.8486Q13.0859-12.6465 18.6035-7.12891Q24.1211-1.61133 31.3232 1.51367Q38.5254 4.63867 46.7285 4.63867Z"/>
   <path class="multicolor-1:white hierarchical-1:primary SFSymbolsPreviewFFFFFF" d="M46.6797-2.53906Q42.5781-2.53906 38.3789-3.6377Q34.1797-4.73633 30.3467-6.88477Q26.5137-9.0332 23.584-12.1094Q25.7812-15.3809 29.248-17.6514Q32.7148-19.9219 37.1582-21.1182Q41.6016-22.3145 46.6797-22.3145Q51.709-22.3145 56.1523-21.1426Q60.5957-19.9707 64.0869-17.7002Q67.5781-15.4297 69.7754-12.1094Q66.8457-9.0332 63.0371-6.88477Q59.2285-4.73633 55.0049-3.6377Q50.7812-2.53906 46.6797-2.53906ZM46.6797-28.8574Q42.9199-28.9062 39.8926-30.835Q36.8652-32.7637 35.083-36.0596Q33.3008-39.3555 33.3008-43.5059Q33.3008-47.4121 35.083-50.6592Q36.8652-53.9062 39.8926-55.8838Q42.9199-57.8613 46.6797-57.8613Q50.3906-57.8613 53.418-55.8838Q56.4453-53.9062 58.2275-50.6592Q60.0098-47.4121 60.0098-43.5059Q60.0098-39.3555 58.252-36.0352Q56.4941-32.7148 53.4668-30.7617Q50.4395-28.8086 46.6797-28.8574Z"/>
  </g>
  <g id="Regular-S" transform="matrix(1 0 0 1 1403.58 696)">
   <path class="multicolor-0:tintColor hierarchical-0:tertiary SFSymbolsPreview007AFF" d="M46.2402 4.15039Q54.3457 4.15039 61.4746 1.07422Q68.6035-2.00195 74.0479-7.4707Q79.4922-12.9395 82.5928-20.0684Q85.6934-27.1973 85.6934-35.2539Q85.6934-43.3105 82.5928-50.4395Q79.4922-57.5684 74.0234-63.0371Q68.5547-68.5059 61.4258-71.582Q54.2969-74.6582 46.1914-74.6582Q38.1348-74.6582 31.0059-71.582Q23.877-68.5059 18.457-63.0371Q13.0371-57.5684 9.93652-50.4395Q6.83594-43.3105 6.83594-35.2539Q6.83594-27.1973 9.93652-20.0684Q13.0371-12.9395 18.4814-7.4707Q23.9258-2.00195 31.0547 1.07422Q38.1836 4.15039 46.2402 4.15039Z"/>
   <path class="multicolor-1:white hierarchical-1:primary SFSymbolsPreviewFFFFFF" d="M46.2402-2.44141Q42.041-2.44141 37.8662-3.54004Q33.6914-4.63867 29.9072-6.78711Q26.123-8.93555 23.1445-12.0605Q25.1953-15.2344 28.6621-17.4805Q32.1289-19.7266 36.6211-20.9229Q41.1133-22.1191 46.2402-22.1191Q51.2695-22.1191 55.7617-20.9473Q60.2539-19.7754 63.7451-17.5293Q67.2363-15.2832 69.3359-12.0605Q66.3574-8.93555 62.5732-6.78711Q58.7891-4.63867 54.5898-3.54004Q50.3906-2.44141 46.2402-2.44141ZM46.2402-28.5645Q42.5293-28.6133 39.5508-30.4932Q36.5723-32.373 34.8145-35.6201Q33.0566-38.8672 33.0566-43.0176Q33.0566-46.875 34.8145-50.0977Q36.5723-53.3203 39.5508-55.249Q42.5293-57.1777 46.2402-57.1777Q49.9023-57.1777 52.8809-55.249Q55.8594-53.3203 57.6172-50.0977Q59.375-46.875 59.375-43.0176Q59.375-38.8672 57.6416-35.5957Q55.9082-32.3242 52.9053-30.4199Q49.9023-28.5156 46.2402-28.5645Z"/>
  </g>
  <g id="Light-S" transform="matrix(1 0 0 1 1107.6 696)">
   <path class="multicolor-0:tintColor hierarchical-0:tertiary SFSymbolsPreview007AFF" d="M45.5078 3.41797Q53.4668 3.41797 60.4736 0.415039Q67.4805-2.58789 72.8271-7.95898Q78.1738-13.3301 81.2012-20.3125Q84.2285-27.2949 84.2285-35.2539Q84.2285-43.2129 81.2012-50.1953Q78.1738-57.1777 72.8027-62.5488Q67.4316-67.9199 60.4492-70.9229Q53.4668-73.9258 45.459-73.9258Q37.5488-73.9258 30.542-70.9229Q23.5352-67.9199 18.2129-62.5488Q12.8906-57.1777 9.86328-50.1953Q6.83594-43.2129 6.83594-35.2539Q6.83594-27.2949 9.86328-20.3125Q12.8906-13.3301 18.2373-7.95898Q23.584-2.58789 30.5908 0.415039Q37.5977 3.41797 45.5078 3.41797Z"/>
   <path class="multicolor-1:white hierarchical-1:primary SFSymbolsPreviewFFFFFF" d="M45.5078-1.66016Q40.918-1.66016 36.5723-2.88086Q32.2266-4.10156 28.3936-6.37207Q24.5605-8.64258 21.6797-11.7188Q23.7305-15.0391 27.3438-17.4072Q30.957-19.7754 35.6201-21.0449Q40.2832-22.3145 45.5078-22.3145Q50.6836-22.3145 55.3711-21.0449Q60.0586-19.7754 63.6719-17.4072Q67.2852-15.0391 69.3848-11.7188Q66.4551-8.64258 62.6465-6.37207Q58.8379-4.10156 54.4678-2.88086Q50.0977-1.66016 45.5078-1.66016ZM45.5078-28.8086Q41.8457-28.8574 38.8916-30.7373Q35.9375-32.6172 34.1797-35.8643Q32.4219-39.1113 32.4219-43.2617Q32.4219-47.0703 34.1797-50.293Q35.9375-53.5156 38.8916-55.4443Q41.8457-57.373 45.5078-57.373Q49.1699-57.373 52.124-55.4443Q55.0781-53.5156 56.8359-50.293Q58.5938-47.0703 58.5938-43.2617Q58.5938-39.1113 56.8604-35.8643Q55.127-32.6172 52.1484-30.7129Q49.1699-28.8086 45.5078-28.8086Z"/>
  </g>
  <g id="Thin-S" transform="matrix(1 0 0 1 811.863 696)">
   <path class="multicolor-0:tintColor hierarchical-0:tertiary SFSymbolsPreview007AFF" d="M44.5312 2.44141Q52.3438 2.44141 59.1553-0.488281Q65.9668-3.41797 71.1914-8.64258Q76.416-13.8672 79.3457-20.6787Q82.2754-27.4902 82.2754-35.2539Q82.2754-43.0176 79.3457-49.8291Q76.416-56.6406 71.1914-61.8652Q65.9668-67.0898 59.1553-70.0195Q52.3438-72.9492 44.5312-72.9492Q36.7676-72.9492 29.9316-70.0195Q23.0957-67.0898 17.9199-61.8652Q12.7441-56.6406 9.79004-49.8291Q6.83594-43.0176 6.83594-35.2539Q6.83594-27.4902 9.79004-20.6787Q12.7441-13.8672 17.9199-8.64258Q23.0957-3.41797 29.9316-0.488281Q36.7676 2.44141 44.5312 2.44141Z"/>
   <path class="multicolor-1:white hierarchical-1:primary SFSymbolsPreviewFFFFFF" d="M44.5801-0.634766Q39.4531-0.634766 34.8389-2.02637Q30.2246-3.41797 26.3672-5.83496Q22.5098-8.25195 19.6777-11.3281Q21.8262-14.7461 25.5859-17.2607Q29.3457-19.7754 34.2529-21.167Q39.1602-22.5586 44.5801-22.5586Q49.9512-22.5586 54.8584-21.1914Q59.7656-19.8242 63.5742-17.2852Q67.3828-14.7461 69.4824-11.3281Q66.6016-8.25195 62.7686-5.83496Q58.9355-3.41797 54.2969-2.02637Q49.6582-0.634766 44.5801-0.634766ZM44.5801-29.1504Q40.918-29.1992 37.9883-31.0791Q35.0586-32.959 33.3252-36.2061Q31.5918-39.4531 31.5918-43.5547Q31.5918-47.3633 33.3252-50.5615Q35.0586-53.7598 38.0127-55.6885Q40.9668-57.6172 44.5801-57.6172Q48.1934-57.6172 51.123-55.6885Q54.0527-53.7598 55.7861-50.5615Q57.5195-47.3633 57.5195-43.5547Q57.5195-39.4531 55.835-36.2061Q54.1504-32.959 51.1963-31.0547Q48.2422-29.1504 44.5801-29.1504Z"/>
  </g>
  <g id="Ultralight-S" transform="matrix(1 0 0 1 515.649 696)">
   <path class="multicolor-0:tintColor hierarchical-0:tertiary SFSymbolsPreview007AFF" d="M44.043 1.95312Q51.7578 1.95312 58.4717-0.927734Q65.1855-3.80859 70.3369-8.95996Q75.4883-14.1113 78.3936-20.8252Q81.2988-27.5391 81.2988-35.2539Q81.2988-42.9688 78.3936-49.6826Q75.4883-56.3965 70.3369-61.5479Q65.1855-66.6992 58.4717-69.5801Q51.7578-72.4609 44.043-72.4609Q36.377-72.4609 29.6387-69.5801Q22.9004-66.6992 17.7734-61.5479Q12.6465-56.3965 9.74121-49.6826Q6.83594-42.9688 6.83594-35.2539Q6.83594-27.5391 9.74121-20.8252Q12.6465-14.1113 17.7734-8.95996Q22.9004-3.80859 29.6387-0.927734Q36.377 1.95312 44.043 1.95312Z"/>
   <path class="multicolor-1:white hierarchical-1:primary SFSymbolsPreviewFFFFFF" d="M44.043-0.146484Q38.6719-0.146484 33.9355-1.58691Q29.1992-3.02734 25.3174-5.51758Q21.4355-8.00781 18.6523-11.084Q20.8008-14.5996 24.6582-17.2119Q28.5156-19.8242 33.5449-21.2646Q38.5742-22.7051 44.043-22.7051Q49.5117-22.7051 54.541-21.2646Q59.5703-19.8242 63.4766-17.2119Q67.3828-14.5996 69.4824-11.084Q66.6504-8.00781 62.793-5.51758Q58.9355-3.02734 54.1748-1.58691Q49.4141-0.146484 44.043-0.146484ZM44.043-29.3457Q40.3809-29.3457 37.4756-31.25Q34.5703-33.1543 32.8613-36.4014Q31.1523-39.6484 31.1523-43.7012Q31.1523-47.5098 32.8857-50.708Q34.6191-53.9062 37.5488-55.835Q40.4785-57.7637 44.043-57.7637Q47.6562-57.7637 50.5615-55.835Q53.4668-53.9062 55.2246-50.708Q56.9824-47.5098 56.9824-43.7012Q56.9824-39.6484 55.2734-36.4014Q53.5645-33.1543 50.6348-31.25Q47.7051-29.3457 44.043-29.3457Z"/>
  </g>
 </g>
</svg>
